<svg xmlns="http://www.w3.org/2000/svg" viewBox="0 0 1063.67 770.71"><title>wtmsbackground</title><g id="a5d644da-a518-4f2b-80bb-662f9a26b736" data-name="Layer 232"><path d="M12.29,580.63A1.5,1.5,0,1,1,13.72,578L349.5,761.19a1.49,1.49,0,0,1-1.43,2.62Z" transform="translate(1.49 1.49)" style="fill:#a1d9f8;fill-rule:evenodd"/></g><g id="b90dbf73-584e-4197-98d8-13896cf67ba7" data-name="Layer 231"><path d="M549.67,1.31a1.48,1.48,0,0,1-.6-2,1.49,1.49,0,0,1,2-.6L886.87,181.87a1.5,1.5,0,1,1-1.43,2.63Z" transform="translate(1.49 1.49)" style="fill:#a1d9f8;fill-rule:evenodd"/></g><g id="bcaa082b-971e-4ef0-a19f-5b65cd8d6ad0" data-name="Layer 230"><path d="M686.76,652.26a1.49,1.49,0,0,1,1.43-2.62l93,50.76A1.49,1.49,0,1,1,779.8,703Z" transform="translate(1.49 1.49)" style="fill:#a1d9f8;fill-rule:evenodd"/></g><g id="faf96812-b88a-4aab-9703-e71e7b3d1382" data-name="Layer 229"><path d="M804.85,718.27a1.49,1.49,0,1,1,1.43-2.62l93,50.76a1.49,1.49,0,1,1-1.43,2.62Z" transform="translate(1.49 1.49)" style="fill:#a1d9f8;fill-rule:evenodd"/></g><g id="a1cb7560-6a3f-4c7b-807a-dcfa69e72e79" data-name="Layer 228"><path d="M838,273.2a1.49,1.49,0,0,1,1.43-2.62l222,121.12a1.49,1.49,0,1,1-1.43,2.62Z" transform="translate(1.49 1.49)" style="fill:#a1d9f8;fill-rule:evenodd"/></g><g id="a998e793-a1ea-4fb2-bd21-d4259405b05d" data-name="Layer 227"><path d="M-.72,112.58a1.48,1.48,0,0,1-.59-2,1.48,1.48,0,0,1,2-.6l48.12,26.25a1.49,1.49,0,1,1-1.43,2.62Z" transform="translate(1.49 1.49)" style="fill:#a1d9f8;fill-rule:evenodd"/></g><g id="ff48c156-2ece-464e-8b73-38142def64ec" data-name="Layer 226"><path d="M514.55,530.53l-52.8,27.18a12,12,0,0,0-5.2,16.23l.67,1.31,4.31,8.36,29.39,57.09,4.31,8.37.67,1.3a12.06,12.06,0,0,0,16.24,5.2l52.8-27.18a12.07,12.07,0,0,0,5.2-16.23l-.68-1.31-4.3-8.37-29.4-57.09-4.3-8.36-.68-1.31A12,12,0,0,0,514.55,530.53Z" transform="translate(1.49 1.49)" style="fill:#a4dbf8;fill-rule:evenodd"/></g><g id="b8642551-8fcb-4b24-83f6-20e31599b4db" data-name="Layer 225"><path d="M511.19,654.37l.26-.13,52.81-27.18a10.58,10.58,0,0,0,4.55-14.22l-43.66-84.79a10.55,10.55,0,0,0-14-4.69v-3.24a13.56,13.56,0,0,1,16.62,6.55l43.61,84.7a2,2,0,0,1,.1.21,13.56,13.56,0,0,1-5.79,18.09l-.21.1-52.7,27.13a11.66,11.66,0,0,1-1.63.71Zm-.26-130.88-52.8,27.19a10.54,10.54,0,0,0-4.55,14.21l43.65,84.8a10.56,10.56,0,0,0,14,4.68v3.24a13.56,13.56,0,0,1-16.62-6.55l-43.66-84.8A13.55,13.55,0,0,1,456.76,548l52.8-27.19a14.61,14.61,0,0,1,1.63-.71v3.24Z" transform="translate(1.49 1.49)" style="fill:#3a3732;fill-rule:evenodd"/></g><g id="f5fa174d-4717-42d8-b362-df096ad1bae2" data-name="Layer 224"><rect x="469.44" y="552.06" width="83.49" height="73.62" transform="translate(-211.36 300.81) rotate(-27.24)" style="fill:#fff"/></g><g id="f7cc176a-ddec-4b9d-bed7-55c67570d485" data-name="Layer 223"><path d="M565.84,603.81,511.19,632v-3.36l51.95-26.75-32.33-62.79-19.62,10.1v-3.37l19.58-10.08a1.5,1.5,0,0,1,2,.64l33.7,65.46A1.49,1.49,0,0,1,565.84,603.81ZM511.19,632,491.61,642a1.5,1.5,0,0,1-2-.64l-33.7-65.45a1.51,1.51,0,0,1,.65-2l54.65-28.14v3.37L459.24,575.9l32.33,62.79,19.62-10.1Z" transform="translate(1.49 1.49)" style="fill:#3a3732;fill-rule:evenodd"/></g><g id="bf63703e-7d2e-4706-8368-c6e4a0318a8b" data-name="Layer 222"><path d="M527.47,633.91a5,5,0,1,1,6.69,2.15A5,5,0,0,1,527.47,633.91Z" transform="translate(1.49 1.49)" style="fill:#fff;fill-rule:evenodd"/></g><g id="b0c73d55-0c0c-43d8-8269-ce720f9d845c" data-name="Layer 221"><path d="M531.89,625.18a6.24,6.24,0,0,1,2,.31,6.47,6.47,0,0,1,1,11.9,6.54,6.54,0,0,1-3,.71v-3a3.47,3.47,0,0,0,1.06-6.78,3.45,3.45,0,0,0-1.06-.16Zm-5.75,9.42a6.45,6.45,0,0,1,5.75-9.42v3a3.47,3.47,0,1,0,0,6.94v3a6.24,6.24,0,0,1-2-.31A6.44,6.44,0,0,1,526.14,634.6Z" transform="translate(1.49 1.49)" style="fill:#3a3732;fill-rule:evenodd"/></g><g id="ad1b2a28-242b-41a9-b921-87ea14cd617a" data-name="Layer 220"><path d="M506.07,536.18a3,3,0,1,1,4,1.28A3,3,0,0,1,506.07,536.18Z" transform="translate(1.49 1.49)" style="fill:#3a3732;fill-rule:evenodd"/></g><g id="e0ed9174-7397-4494-8199-eaffb1037476" data-name="Layer 219"><path d="M500.17,543.38l-21.69,11.17a3.68,3.68,0,0,1-5-1.58h0a3.68,3.68,0,0,1,1.58-5l21.7-11.17a3.68,3.68,0,0,1,4.95,1.58h0A3.67,3.67,0,0,1,500.17,543.38Z" transform="translate(1.49 1.49)" style="fill:#3a3732;fill-rule:evenodd"/></g><g id="b0a21652-5285-4d84-a0e1-cdb085fab6cd" data-name="Layer 218"><path d="M516.2,595.84l2.35-1.22-2.35-2v3.24Zm0-8.32V583l1.7-.88-1.7-3.32v-.94l3.17-1.63,2.09,4.06,4.06-2.09,1.83,3.55-4.06,2.09,2.09,4.07-3.55,1.83-2.1-4.06Zm-3.92,10.33,3.92-2V592.6l-12-10.27v7.87l2.26,2.13-2.26,1.16v5.33l5.88-3,2.18,2.05Zm3.92-20v.94l-.39-.74.39-.2Zm0,5.14v4.5l-.53.27-1.83-3.56Zm-12-.69-2.07-1.78-6,3.11,1.65,21.67,6-3.11-.38-3,.8-.41v-5.33l-1.45.75-.8-6.18,2.25,2.14Z" transform="translate(1.49 1.49)" style="fill:#a4dbf8;fill-rule:evenodd"/></g><g id="fc9c9038-6a1c-405a-a9c6-d0da91ac764c" data-name="Layer 217"><rect x="534.63" y="538.05" width="4.7" height="9.17" transform="translate(-187.32 307.45) rotate(-27.24)" style="fill:#a4dbf8"/></g><g id="ad1e8b58-39f8-4bb4-96fc-695412fce953" data-name="Layer 216"><path d="M541.86,547l-4.18,2.15a1.48,1.48,0,0,1-.7.17V544.5l.66,1.27,1.52-.79L537,540.76V536a1.53,1.53,0,0,1,1.33.81l4.19,8.15A1.5,1.5,0,0,1,541.86,547ZM537,549.28a1.5,1.5,0,0,1-1.32-.81l-4.19-8.15a1.5,1.5,0,0,1,.64-2l4.18-2.15A1.44,1.44,0,0,1,537,536v4.78l-.65-1.27-1.52.79L537,544.5Z" transform="translate(1.49 1.49)" style="fill:#3a3732;fill-rule:evenodd"/></g><g id="e8678f84-2f9d-4b00-8b23-dbe7e08a1d0d" data-name="Layer 215"><rect x="541.38" y="551.16" width="4.7" height="9.17" transform="translate(-192.58 312.01) rotate(-27.24)" style="fill:#a4dbf8"/></g><g id="e5767973-9224-4fd5-8ad0-c7823b28b375" data-name="Layer 214"><path d="M548.61,560.07l-4.18,2.15a1.48,1.48,0,0,1-.7.17v-4.78l.66,1.27,1.52-.79-2.18-4.22v-4.78a1.53,1.53,0,0,1,1.33.81l4.19,8.15A1.5,1.5,0,0,1,548.61,560.07Zm-4.88,2.32a1.51,1.51,0,0,1-1.32-.81l-4.19-8.15a1.5,1.5,0,0,1,.64-2l4.18-2.15a1.56,1.56,0,0,1,.69-.17v4.78l-.65-1.26-1.52.78,2.17,4.22Z" transform="translate(1.49 1.49)" style="fill:#3a3732;fill-rule:evenodd"/></g><g id="afc25c18-da77-4565-8430-3091f78b21c9" data-name="Layer 213"><rect x="479.27" y="623.18" width="4.7" height="9.17" transform="translate(-232.43 291.56) rotate(-27.24)" style="fill:#a4dbf8"/></g><g id="eaf94614-4d58-4bd8-b4de-287a3191aea6" data-name="Layer 212"><path d="M486.49,632.09l-4.18,2.16a1.55,1.55,0,0,1-.69.16v-4.78l.65,1.27,1.52-.78-2.17-4.23v-4.77a1.47,1.47,0,0,1,1.32.81l4.2,8.15A1.5,1.5,0,0,1,486.49,632.09Zm-4.87,2.32a1.51,1.51,0,0,1-1.33-.81l-4.19-8.15a1.49,1.49,0,0,1,.64-2l4.18-2.16a1.46,1.46,0,0,1,.7-.16v4.77l-.66-1.26-1.52.78,2.18,4.22Z" transform="translate(1.49 1.49)" style="fill:#3a3732;fill-rule:evenodd"/></g><g id="e36c4768-6bdd-4f82-9c70-b97bd19ab80b" data-name="Layer 211"><path d="M284.86,663.64,276,662.12a14.88,14.88,0,0,1-12.15-17.18l1-6A10,10,0,0,1,272,631l3.74-1.09a28.15,28.15,0,0,1,19.8,1.54l5.78,2.7a10,10,0,0,1,4.94,13l-2.74,6.35A17.15,17.15,0,0,1,284.86,663.64Z" transform="translate(1.49 1.49)" style="fill:#a4dbf8;fill-rule:evenodd"/></g><g id="e22e846e-cc3f-4251-ab52-6b0cf9bb9bbd" data-name="Layer 210"><path d="M285.37,627.37l.51,0a29.62,29.62,0,0,1,10.28,2.71l5.77,2.71a11.49,11.49,0,0,1,5.69,14.94l-2.74,6.36a18.63,18.63,0,0,1-19.51,11.11v-3a15.65,15.65,0,0,0,16.76-9.27l2.73-6.35a8.51,8.51,0,0,0-4.19-11.06l-5.78-2.7a26.69,26.69,0,0,0-9.24-2.43l-.28,0Zm-.76,37.74-8.82-1.51a16.36,16.36,0,0,1-13.37-18.91l1-6a11.51,11.51,0,0,1,8.12-9.09l3.73-1.09a29.73,29.73,0,0,1,10.07-1.12v3a26.72,26.72,0,0,0-9.23,1l-3.74,1.09a8.49,8.49,0,0,0-4,2.5,8.6,8.6,0,0,0-2,4.22l-1,6a13.36,13.36,0,0,0,10.92,15.45l8.83,1.52.25,0v3C285.12,665.19,284.86,665.16,284.61,665.11Z" transform="translate(1.49 1.49)" style="fill:#3a3732;fill-rule:evenodd"/></g><g id="b09777c3-0bad-46a1-a986-6538f922217f" data-name="Layer 209"><path d="M265.18,637.44a1.5,1.5,0,0,1-.51,3L256.39,639a1.5,1.5,0,1,1,.5-3Z" transform="translate(1.49 1.49)" style="fill:#3a3732;fill-rule:evenodd"/></g><g id="e61bcf7c-863e-43ed-bb9e-f99a62dfcf6a" data-name="Layer 208"><path d="M337.34,672.64l8.82,1.51A14.89,14.89,0,0,0,363.35,662l1-6a10,10,0,0,0-4-9.81l-3.16-2.27A28.17,28.17,0,0,0,338,638.76l-6.35.62a10,10,0,0,0-9,10.61l.46,6.9A17.14,17.14,0,0,0,337.34,672.64Z" transform="translate(1.49 1.49)" style="fill:#a4dbf8;fill-rule:evenodd"/></g><g id="f0328fe5-c82f-4415-a7c4-b119abcc74d5" data-name="Layer 207"><path d="M343.59,672.19l2.83.49a13.39,13.39,0,0,0,15.45-10.93l1-6a8.39,8.39,0,0,0-.51-4.66,8.51,8.51,0,0,0-2.9-3.68l-3.16-2.27a26.63,26.63,0,0,0-12.74-4.85v-3a29.61,29.61,0,0,1,14.48,5.44l3.16,2.27a11.39,11.39,0,0,1,3.93,5,11.51,11.51,0,0,1,.7,6.3l-1,6a16.38,16.38,0,0,1-18.91,13.37l-2.32-.4Zm-6-1,6,1v3l-6.5-1.11A18.65,18.65,0,0,1,321.64,657l-.46-6.9a11.5,11.5,0,0,1,10.34-12.2l6.35-.62a29.55,29.55,0,0,1,5.72,0v3a26.62,26.62,0,0,0-5.43,0l-6.35.62a8.5,8.5,0,0,0-7.64,9l.46,6.9a15.66,15.66,0,0,0,13,14.37Z" transform="translate(1.49 1.49)" style="fill:#3a3732;fill-rule:evenodd"/></g><g id="b3fec70e-7a97-4ae6-b68a-0a3058245011" data-name="Layer 206"><path d="M364.13,657.46a1.5,1.5,0,1,1,.5-3l8.29,1.42a1.5,1.5,0,1,1-.51,3Z" transform="translate(1.49 1.49)" style="fill:#3a3732;fill-rule:evenodd"/></g><g id="a727d689-f427-463a-a144-5716bc1ed592" data-name="Layer 205"><path d="M307.56,642a1.5,1.5,0,1,1-1.63-2.51s11.21-7.44,18.78,3.27a1.5,1.5,0,0,1-2.45,1.72C316.37,636.17,307.58,642,307.56,642Z" transform="translate(1.49 1.49)" style="fill:#3a3732;fill-rule:evenodd"/></g><g id="a63563d5-0615-4183-98f3-dc0efd6ebef8" data-name="Layer 204"><path d="M324.44,649.87l.08,1.2c11.67.32,22.42-2.28,29.52-7.1a26.47,26.47,0,0,0-15.85-3.46l-6.35.63A8.18,8.18,0,0,0,324.44,649.87Z" transform="translate(1.49 1.49)" style="fill:#fff;fill-rule:evenodd"/></g><g id="e56c1375-b513-40bd-a8cc-f2f7ad9b9022" data-name="Layer 203"><path d="M304.1,647.67l.52-1.19a8.2,8.2,0,0,0-4.07-10.71h0l-5.77-2.71A26.39,26.39,0,0,0,278,631.17C283.29,638.14,292.78,644.16,304.1,647.67Z" transform="translate(1.49 1.49)" style="fill:#fff;fill-rule:evenodd"/></g><g id="b4710fdc-c03f-4d41-9ec3-80d01f2440b0" data-name="Layer 202"><circle cx="208.51" cy="520.82" r="50.96" transform="translate(-322.42 699.1) rotate(-86.55)" style="fill:#fff"/></g><g id="f1ea3959-5f11-4906-afd5-1305df62b41c" data-name="Layer 201"><path d="M208.51,468.36h0a52.46,52.46,0,0,1,0,104.92h0v-3h0a49.46,49.46,0,0,0,0-98.92h0Zm-52.46,52.46a52.46,52.46,0,0,1,52.46-52.46v3a49.46,49.46,0,1,0,0,98.92v3a52.46,52.46,0,0,1-52.46-52.46Z" transform="translate(1.49 1.49)" style="fill:#3a3732;fill-rule:evenodd"/></g><g id="f5279674-1818-49b1-aee7-6a421f599dff" data-name="Layer 200"><path d="M263,515.53h-18a36.82,36.82,0,1,0,0,10.58h18a5.29,5.29,0,0,0,0-10.58Z" transform="translate(1.49 1.49)" style="fill:#fff;fill-rule:evenodd"/></g><g id="b43b20f5-f348-43a9-8e89-1a56f87c43da" data-name="Layer 199"><path d="M263,517h-18a1.5,1.5,0,0,1-1.5-1.37A35.33,35.33,0,0,0,220,487.41v-3.16A38.43,38.43,0,0,1,246.21,514H263a6.76,6.76,0,0,1,4.8,2h0a6.78,6.78,0,0,1,0,9.59h0a6.79,6.79,0,0,1-4.8,2H246.21A38.38,38.38,0,0,1,220,557.39v-3.15a35.32,35.32,0,0,0,23.48-28.34,1.51,1.51,0,0,1,1.49-1.28h18a3.78,3.78,0,0,0,2.68-1.1h0a3.81,3.81,0,0,0,0-5.36h0A3.74,3.74,0,0,0,263,517Zm-43-29.62a35.32,35.32,0,1,0,0,66.83v3.15a38.31,38.31,0,1,1,0-73.14Z" transform="translate(1.49 1.49)" style="fill:#3a3732;fill-rule:evenodd"/></g><g id="e28b127b-141e-43d2-9a83-e6db1bb44275" data-name="Layer 198"><path d="M179.3,520.82A29.21,29.21,0,1,1,208.51,550,29.2,29.2,0,0,1,179.3,520.82Z" transform="translate(1.49 1.49)" style="fill:#a4dbf8;fill-rule:evenodd"/></g><g id="bbbc6b32-c20f-4d3e-9d5d-f0cc62ba8354" data-name="Layer 197"><path d="M208.51,490.12h0a30.7,30.7,0,1,1,0,61.4h0v-3h0a27.7,27.7,0,0,0,0-55.4h0Zm-30.71,30.7a30.71,30.71,0,0,1,30.71-30.7v3a27.7,27.7,0,1,0,0,55.4v3a30.71,30.71,0,0,1-30.71-30.7Z" transform="translate(1.49 1.49)" style="fill:#3a3732;fill-rule:evenodd"/></g><g id="f9fde1f0-a6db-4dec-8b50-8ae1661971da" data-name="Layer 196"><path d="M227.12,500.65a27.45,27.45,0,0,0-38.78,38.79,31,31,0,0,1,38.78-38.79Z" transform="translate(1.49 1.49)" style="fill:#fff;fill-rule:evenodd"/></g><g id="f2d5f669-825a-4471-b435-da9b6e356d38" data-name="Layer 195"><path d="M683.57,542.16l-222.79-87a13.48,13.48,0,0,1-7.66-17.48l54.35-139.12,247.94,96.87L701.05,534.5A13.48,13.48,0,0,1,683.57,542.16Z" transform="translate(1.49 1.49)" style="fill:#fff;fill-rule:evenodd"/></g><g id="b043486b-06d5-477e-bc0d-dc3b892befd9" data-name="Layer 194"><path d="M683,543.56l-79.44-31V509.3l80.53,31.47A12,12,0,0,0,699.66,534l53.81-137.73L603.58,337.66v-3.21L756,394a1.5,1.5,0,0,1,.85,1.94L702.45,535.05A15,15,0,0,1,683,543.56Zm-79.44-31-143.35-56a15,15,0,0,1-8.51-19.43L506.08,298a1.5,1.5,0,0,1,1.94-.85l95.56,37.34v3.21l-95.26-37.22L454.51,438.17a12,12,0,0,0,6.81,15.55L603.58,509.3Z" transform="translate(1.49 1.49)" style="fill:#3a3732;fill-rule:evenodd"/></g><g id="a35160e5-4fb2-4fb1-80e9-e31eccb81923" data-name="Layer 193"><polygon points="756.91 396.88 508.97 300 507.15 271.03 777.88 376.81 756.91 396.88" style="fill:#a4dbf8;fill-rule:evenodd"/></g><g id="bd3fc90e-16be-45c8-b78f-a394910f06dd" data-name="Layer 192"><path d="M754.87,396.78l-114.39-44.7v-3.21l114.59,44.77,18.59-17.78-133.18-52V320.6l136.45,53.32a1.5,1.5,0,0,1,.85,1.94,1.58,1.58,0,0,1-.45.62l-20.89,20a1.48,1.48,0,0,1-1.57.31Zm-114.39-44.7L506.93,299.9a1.49,1.49,0,0,1-.95-1.32l-1.82-28.95a1.5,1.5,0,0,1,1.4-1.59,1.38,1.38,0,0,1,.67.11L640.48,320.6v3.22l-133.18-52,1.61,25.68,131.57,51.41Z" transform="translate(1.49 1.49)" style="fill:#3a3732;fill-rule:evenodd"/></g><g id="a57ba702-bfbe-4c8f-b76e-7434a81f2752" data-name="Layer 191"><path d="M768.16,356.53,524.44,261.3a14.5,14.5,0,0,0-18.78,8.23h0L776.39,375.31h0A14.5,14.5,0,0,0,768.16,356.53Z" transform="translate(1.49 1.49)" style="fill:#fff;fill-rule:evenodd"/></g><g id="a51fc856-a5fa-457e-b353-244e193c72b4" data-name="Layer 190"><path d="M767.61,357.92,641.78,308.76v-3.22L768.7,355.13a16,16,0,0,1,9.08,20.73,1.5,1.5,0,0,1-1.94.85L641.78,324.33v-3.22l133.68,52.23a13,13,0,0,0-7.85-15.42ZM641.78,308.76,523.9,262.7a13,13,0,0,0-16.22,6l134.1,52.4v3.22l-136.67-53.4a1.5,1.5,0,0,1-.85-1.94A16,16,0,0,1,525,259.91l116.79,45.63Z" transform="translate(1.49 1.49)" style="fill:#3a3732;fill-rule:evenodd"/></g><g id="a0339659-5d0d-4ccc-bec5-4b795ca524f8" data-name="Layer 189"><polygon points="517.95 293.45 517.42 285.1 760.79 380.19 754.75 385.97 517.95 293.45" style="fill:#fff;fill-rule:evenodd"/></g><g id="fe9b3642-737c-4cb4-8d4b-c60b6c017315" data-name="Layer 188"><path d="M637.07,329.33l122.77,48a1.5,1.5,0,0,1,.85,1.94,1.58,1.58,0,0,1-.45.62l-6,5.7a1.5,1.5,0,0,1-1.57.31h0L637.07,340.69v-3.22l115.84,45.27,3.66-3.5-119.5-46.69ZM515,292l-.53-8.32a1.5,1.5,0,0,1,1.4-1.59,1.66,1.66,0,0,1,.67.11l120.57,47.11v3.22l-119.5-46.7.32,5.06,119.18,46.56v3.22L515.91,293.35A1.48,1.48,0,0,1,515,292Z" transform="translate(1.49 1.49)" style="fill:#3a3732;fill-rule:evenodd"/></g><g id="b69b6664-ce0b-448e-b21c-8f55c6576ab2" data-name="Layer 187"><polygon points="517.95 293.45 517.42 285.1 760.79 380.19 754.75 385.97 517.95 293.45" style="fill:#fff;fill-rule:evenodd"/></g><g id="bf109d21-2c09-41dd-9678-530f68b839c6" data-name="Layer 186"><path d="M637.07,329.33l122.77,48a1.5,1.5,0,0,1,.85,1.94,1.58,1.58,0,0,1-.45.62l-6,5.7a1.5,1.5,0,0,1-1.57.31h0L637.07,340.69v-3.22l115.84,45.27,3.66-3.5-119.5-46.69ZM515,292l-.53-8.32a1.5,1.5,0,0,1,1.4-1.59,1.66,1.66,0,0,1,.67.11l120.57,47.11v3.22l-119.5-46.7.32,5.06,119.18,46.56v3.22L515.91,293.35A1.48,1.48,0,0,1,515,292Z" transform="translate(1.49 1.49)" style="fill:#3a3732;fill-rule:evenodd"/></g><g id="bbafbc06-a40c-4411-9553-32fa2721f97f" data-name="Layer 185"><rect x="566.42" y="438.11" width="32.13" height="68.27" transform="translate(-67.87 844.41) rotate(-68.66)" style="fill:#a4dbf8"/></g><g id="acdd89f8-412d-41dd-995f-c1520a147c2b" data-name="Layer 184"><path d="M618.18,470.56l-35.7-13.95v-3.22l38.19,14.92a1.5,1.5,0,0,1,.85,1.94l-11.7,29.93a1.47,1.47,0,0,1-1.93.84l-25.41-9.92v-3.22l25.1,9.81Zm-35.7-13.95-25.1-9.81-10.6,27.14,35.7,13.94v3.22L544.3,476.18a1.5,1.5,0,0,1-.85-1.94l11.69-29.92a1.5,1.5,0,0,1,1.94-.85l25.4,9.92Z" transform="translate(1.49 1.49)" style="fill:#3a3732;fill-rule:evenodd"/></g><g id="b57abe29-b574-47f2-80ca-f47e1601b463" data-name="Layer 183"><path d="M548,466.83A1.5,1.5,0,0,1,549,464l20.8,8.13a1.49,1.49,0,1,1-1.09,2.78Z" transform="translate(1.49 1.49)" style="fill:#3a3732;fill-rule:evenodd"/></g><g id="b51d409e-7e77-44c4-92d8-3502ded8b5f2" data-name="Layer 182"><path d="M590.74,483.55a1.5,1.5,0,0,1,1.09-2.79l20.8,8.12a1.5,1.5,0,1,1-1.09,2.79Z" transform="translate(1.49 1.49)" style="fill:#3a3732;fill-rule:evenodd"/></g><g id="f03559f9-c4b7-4928-b156-b87b488b285b" data-name="Layer 181"><rect x="490.76" y="396.64" width="13.39" height="13.39" transform="translate(-57.76 721.4) rotate(-68.66)" style="fill:#a4dbf8"/></g><g id="b02b60bf-fe39-40f3-98bb-544789bd9b24" data-name="Layer 180"><path d="M504.18,400.38l-6.73-2.63v-3.21l9.21,3.6a1.49,1.49,0,0,1,.85,1.94l-4.87,12.47a1.5,1.5,0,0,1-1.94.85l-3.25-1.27v-3.22l2.95,1.15Zm-6.73-2.63-2.95-1.15-3.78,9.68,6.73,2.63v3.22l-9.21-3.6a1.5,1.5,0,0,1-.85-1.94l4.87-12.47a1.5,1.5,0,0,1,1.94-.85l3.25,1.27Z" transform="translate(1.49 1.49)" style="fill:#3a3732;fill-rule:evenodd"/></g><g id="f1030b79-d3a8-4d5a-92a9-ee752d5c7393" data-name="Layer 179"><rect x="511.95" y="404.92" width="13.39" height="13.39" transform="translate(-51.99 746.41) rotate(-68.66)" style="fill:#a4dbf8"/></g><g id="afd9c2ee-1168-4b73-8fb4-5e16877fdf0e" data-name="Layer 178"><path d="M525.38,408.67,518.65,406v-3.22l9.21,3.6a1.5,1.5,0,0,1,.85,1.94l-4.87,12.47a1.5,1.5,0,0,1-1.94.85l-3.25-1.27v-3.22l2.94,1.16ZM518.65,406l-2.95-1.16-3.78,9.68,6.73,2.63v3.22l-9.22-3.6a1.5,1.5,0,0,1-.85-1.94l4.87-12.47a1.5,1.5,0,0,1,1.94-.85l3.26,1.27Z" transform="translate(1.49 1.49)" style="fill:#3a3732;fill-rule:evenodd"/></g><g id="ba6d4ac5-c091-4875-ab10-9e8635adb026" data-name="Layer 177"><polygon points="622.32 445.85 537.54 412.72 532.67 425.19 617.45 458.32 629.92 463.19 634.79 450.72 622.32 445.85" style="fill:#a4dbf8;fill-rule:evenodd"/></g><g id="a7916bcd-7c80-4873-9a26-9166fd032d1c" data-name="Layer 176"><path d="M620.28,445.75l-38-14.87v-3.21l51.61,20.16a1.5,1.5,0,0,1,.85,1.94l-4.87,12.47a1.5,1.5,0,0,1-1.94.85l-45.65-17.84V442l45.34,17.71,3.78-9.68Zm-38-14.87-45.34-17.71-3.78,9.67L582.23,442v3.21l-51.6-20.16a1.5,1.5,0,0,1-.85-1.94l4.87-12.47a1.5,1.5,0,0,1,1.94-.85l45.64,17.84Z" transform="translate(1.49 1.49)" style="fill:#3a3732;fill-rule:evenodd"/></g><g id="afe07a61-369f-4320-9413-dbeb62984f55" data-name="Layer 175"><rect x="639.13" y="454.61" width="13.39" height="13.39" transform="translate(-17.4 896.43) rotate(-68.66)" style="fill:#a4dbf8"/></g><g id="fc6875d3-7414-4d26-8fdc-49bfc00e04b9" data-name="Layer 174"><path d="M652.55,458.36l-6.73-2.63v-3.22l9.21,3.6a1.5,1.5,0,0,1,.85,1.94L651,470.52a1.5,1.5,0,0,1-1.94.85l-3.25-1.27v-3.22l2.95,1.16Zm-6.73-2.63-3-1.16-3.78,9.68,6.73,2.63v3.22l-9.21-3.6a1.49,1.49,0,0,1-.85-1.94l4.87-12.47a1.5,1.5,0,0,1,1.94-.85l3.25,1.27Z" transform="translate(1.49 1.49)" style="fill:#3a3732;fill-rule:evenodd"/></g><g id="a4381f03-c478-4505-aa3c-3007f4dfabbd" data-name="Layer 173"><rect x="660.32" y="462.89" width="13.39" height="13.39" transform="translate(-11.64 921.43) rotate(-68.66)" style="fill:#a4dbf8"/></g><g id="b8ea1abe-e3da-4caa-9795-48da14b9d496" data-name="Layer 172"><path d="M673.75,466.64,667,464v-3.22l9.21,3.6a1.5,1.5,0,0,1,.85,1.94l-4.87,12.47a1.5,1.5,0,0,1-1.94.85L667,478.38v-3.22l2.94,1.16ZM667,464l-2.95-1.15-3.79,9.67,6.74,2.63v3.22l-9.22-3.6a1.5,1.5,0,0,1-.85-1.94l4.87-12.47a1.5,1.5,0,0,1,1.94-.85l3.26,1.27Z" transform="translate(1.49 1.49)" style="fill:#3a3732;fill-rule:evenodd"/></g><g id="fa88cc91-6b15-4ec1-bac6-ea456be3bcd2" data-name="Layer 171"><polygon points="523.81 385.32 502.62 377.04 497.75 389.51 518.94 397.79 531.41 402.66 536.28 390.19 523.81 385.32" style="fill:#a4dbf8;fill-rule:evenodd"/></g><g id="ad5074bd-6674-45ab-b08c-400f285ffb04" data-name="Layer 170"><path d="M521.77,385.22l-6.25-2.44v-3.22l19.81,7.75a1.49,1.49,0,0,1,.85,1.93l-4.87,12.47a1.5,1.5,0,0,1-1.94.85l-13.85-5.41v-3.22l13.54,5.3,3.79-9.68Zm-6.25-2.44L502,377.48l-3.78,9.68,17.33,6.77v3.22l-19.81-7.74a1.5,1.5,0,0,1-.85-1.94L499.73,375a1.5,1.5,0,0,1,1.94-.85l13.85,5.41Z" transform="translate(1.49 1.49)" style="fill:#3a3732;fill-rule:evenodd"/></g><g id="f1d997bd-2b55-4436-bf7b-192d3f4189a8" data-name="Layer 169"><rect x="540.62" y="394.09" width="13.39" height="13.39" transform="translate(-23.66 766.22) rotate(-68.66)" style="fill:#a4dbf8"/></g><g id="b45723be-a8d9-42cb-80ef-8a31d6ec56ea" data-name="Layer 168"><path d="M554,397.83l-6.73-2.63V392l9.22,3.6a1.49,1.49,0,0,1,.85,1.93L552.5,410a1.49,1.49,0,0,1-1.93.85l-3.26-1.27v-3.21l3,1.15Zm-6.73-2.63-2.95-1.15-3.78,9.68,6.73,2.63v3.21L538.1,406a1.5,1.5,0,0,1-.85-1.94l4.87-12.47a1.5,1.5,0,0,1,1.94-.85l3.25,1.28Z" transform="translate(1.49 1.49)" style="fill:#3a3732;fill-rule:evenodd"/></g><g id="adb7ce59-0795-4a94-9dde-1425ad992666" data-name="Layer 167"><rect x="561.81" y="402.37" width="13.39" height="13.39" transform="translate(-17.91 791.2) rotate(-68.66)" style="fill:#a4dbf8"/></g><g id="e076695e-38dd-44dd-a0d9-8e843a2e35e2" data-name="Layer 166"><path d="M575.24,406.11l-6.73-2.63v-3.21l9.21,3.6a1.5,1.5,0,0,1,.85,1.94l-4.87,12.47a1.49,1.49,0,0,1-1.94.84l-3.25-1.27v-3.21l3,1.15Zm-6.73-2.63-3-1.15L561.78,412l6.73,2.63v3.21l-9.22-3.6a1.5,1.5,0,0,1-.85-1.94l4.87-12.46a1.5,1.5,0,0,1,1.94-.85l3.26,1.27Z" transform="translate(1.49 1.49)" style="fill:#3a3732;fill-rule:evenodd"/></g><g id="bdc08d63-546e-4565-b8af-0914a512c601" data-name="Layer 165"><rect x="583.01" y="410.65" width="13.39" height="13.39" transform="translate(-12.12 816.24) rotate(-68.66)" style="fill:#a4dbf8"/></g><g id="ac694630-f416-4572-bd71-7202d9bda608" data-name="Layer 164"><path d="M596.43,414.39l-6.73-2.63v-3.21l9.22,3.6a1.5,1.5,0,0,1,.85,1.94l-4.87,12.47a1.5,1.5,0,0,1-1.94.85l-3.26-1.28v-3.21l2.95,1.15Zm-6.73-2.63-3-1.15L583,420.29l6.73,2.63v3.21l-9.21-3.6a1.49,1.49,0,0,1-.85-1.93l4.87-12.47a1.5,1.5,0,0,1,1.94-.85l3.25,1.27Z" transform="translate(1.49 1.49)" style="fill:#3a3732;fill-rule:evenodd"/></g><g id="befde7e5-cb7d-45f0-a3e3-781008f535fb" data-name="Layer 163"><rect x="646.6" y="435.49" width="13.39" height="13.39" transform="translate(5.19 891.28) rotate(-68.66)" style="fill:#a4dbf8"/></g><g id="a5c606f9-ea3e-4b1b-93c0-ce1d2df47cb6" data-name="Layer 162"><path d="M660,439.24l-6.73-2.63v-3.22l9.21,3.6a1.5,1.5,0,0,1,.85,1.94l-4.87,12.47a1.5,1.5,0,0,1-1.94.85L653.29,451v-3.21l3,1.15Zm-6.73-2.63-2.95-1.15-3.78,9.68,6.73,2.63V451l-9.22-3.6a1.5,1.5,0,0,1-.85-1.94L648.1,433a1.5,1.5,0,0,1,1.94-.85l3.25,1.27Z" transform="translate(1.49 1.49)" style="fill:#3a3732;fill-rule:evenodd"/></g><g id="a87b353b-fcce-46ac-9c7f-27cf24584378" data-name="Layer 161"><rect x="667.79" y="443.78" width="13.39" height="13.39" transform="translate(10.92 916.24) rotate(-68.66)" style="fill:#a4dbf8"/></g><g id="eef53b04-3164-4afc-8820-e15e506eb39a" data-name="Layer 160"><path d="M681.21,447.52l-6.73-2.63v-3.21l9.22,3.6a1.5,1.5,0,0,1,.85,1.94l-4.87,12.46a1.5,1.5,0,0,1-1.94.85l-3.26-1.27v-3.21l2.95,1.15Zm-6.73-2.63-2.94-1.15-3.79,9.68,6.73,2.63v3.21l-9.21-3.6a1.5,1.5,0,0,1-.85-1.94l4.87-12.47a1.5,1.5,0,0,1,1.94-.85l3.25,1.28Z" transform="translate(1.49 1.49)" style="fill:#3a3732;fill-rule:evenodd"/></g><g id="b60ea1c1-da30-4521-bcf2-90aff87d7b9a" data-name="Layer 159"><polygon points="693.38 451.57 688.51 464.04 681.04 483.16 693.5 488.03 700.97 468.92 705.85 456.45 693.38 451.57" style="fill:#a4dbf8;fill-rule:evenodd"/></g><g id="bb9b5ed0-1eee-426d-a07f-7d81d7eb97db" data-name="Layer 158"><path d="M692.73,452l-.78,2v-5.45a1.39,1.39,0,0,1,.48.11l12.46,4.87a1.49,1.49,0,0,1,.85,1.94L693.4,487.08A1.49,1.49,0,0,1,692,488v-5.44l10.46-26.79Zm-.78,2-10.47,26.79,9.68,3.78.79-2V488a1.38,1.38,0,0,1-.49-.1L679,483.06a1.5,1.5,0,0,1-.85-1.94L685.62,462l4.87-12.46a1.5,1.5,0,0,1,1.46-1Z" transform="translate(1.49 1.49)" style="fill:#3a3732;fill-rule:evenodd"/></g><g id="ecfc0159-3a2d-4339-93d1-9db52da874fe" data-name="Layer 157"><rect x="505.7" y="358.4" width="13.39" height="13.39" transform="translate(-12.64 710.99) rotate(-68.66)" style="fill:#a4dbf8"/></g><g id="e1f69ec0-0258-4e18-b7f5-3fa917cfa7e9" data-name="Layer 156"><path d="M519.12,362.15l-6.73-2.63v-3.21l9.21,3.59a1.49,1.49,0,0,1,.85,1.94l-4.87,12.47a1.5,1.5,0,0,1-1.94.85l-3.25-1.27v-3.21l3,1.15Zm-6.73-2.63-2.95-1.15-3.78,9.68,6.73,2.63v3.21l-9.21-3.6a1.5,1.5,0,0,1-.85-1.94l4.87-12.47a1.5,1.5,0,0,1,1.94-.85l3.25,1.28Z" transform="translate(1.49 1.49)" style="fill:#3a3732;fill-rule:evenodd"/></g><g id="a227be1e-a266-47e0-a9bf-f95c02eb08ea" data-name="Layer 155"><rect x="526.89" y="366.69" width="13.39" height="13.39" transform="translate(-6.9 735.96) rotate(-68.66)" style="fill:#a4dbf8"/></g><g id="a25840a4-b335-4f00-a8da-ba5e88e6ebd8" data-name="Layer 154"><path d="M540.32,370.43l-6.73-2.63v-3.21l9.21,3.6a1.5,1.5,0,0,1,.85,1.94l-4.87,12.46a1.5,1.5,0,0,1-1.94.85l-3.25-1.27V379l2.94,1.15Zm-6.73-2.63-3-1.15-3.78,9.68,6.73,2.63v3.21l-9.22-3.6a1.5,1.5,0,0,1-.85-1.94l4.87-12.47a1.5,1.5,0,0,1,1.94-.85l3.26,1.28Z" transform="translate(1.49 1.49)" style="fill:#3a3732;fill-rule:evenodd"/></g><g id="e9916143-98e7-4f18-808a-9b2336685f2a" data-name="Layer 153"><rect x="548.09" y="374.97" width="13.39" height="13.39" transform="translate(-1.13 760.97) rotate(-68.66)" style="fill:#a4dbf8"/></g><g id="b9332ce0-3a29-46f0-abb3-9da466f0de65" data-name="Layer 152"><path d="M561.51,378.71l-6.73-2.63v-3.21l9.22,3.6a1.5,1.5,0,0,1,.85,1.94L560,390.88a1.5,1.5,0,0,1-1.94.85l-3.25-1.28v-3.21l3,1.15Zm-6.73-2.63-2.95-1.15-3.78,9.68,6.73,2.63v3.21l-9.21-3.6a1.5,1.5,0,0,1-.85-1.94l4.87-12.46a1.5,1.5,0,0,1,1.94-.85l3.25,1.27Z" transform="translate(1.49 1.49)" style="fill:#3a3732;fill-rule:evenodd"/></g><g id="b150cdd6-9a9b-4a89-8701-9f1e7de87f7f" data-name="Layer 151"><rect x="569.28" y="383.25" width="13.39" height="13.39" transform="translate(4.67 786.03) rotate(-68.66)" style="fill:#a4dbf8"/></g><g id="af47cd81-543e-402c-ac76-4b15ea251ce8" data-name="Layer 150"><path d="M582.71,387,576,384.36v-3.21l9.21,3.6a1.5,1.5,0,0,1,.85,1.94l-4.87,12.47a1.5,1.5,0,0,1-1.94.85L576,398.74v-3.22l2.95,1.15ZM576,384.36l-3-1.15-3.78,9.68,6.73,2.63v3.22l-9.22-3.6a1.5,1.5,0,0,1-.85-1.94l4.87-12.47a1.5,1.5,0,0,1,1.94-.85l3.26,1.27Z" transform="translate(1.49 1.49)" style="fill:#3a3732;fill-rule:evenodd"/></g><g id="f84075d8-e961-414b-b1bb-c6b4ac177cbd" data-name="Layer 149"><rect x="590.48" y="391.53" width="13.39" height="13.39" transform="translate(10.41 811) rotate(-68.66)" style="fill:#a4dbf8"/></g><g id="eb124dc5-0201-4f43-9e97-86c663e2924f" data-name="Layer 148"><path d="M603.9,395.28l-6.73-2.63v-3.22l9.22,3.6a1.5,1.5,0,0,1,.85,1.94l-4.88,12.47a1.49,1.49,0,0,1-1.93.85L597.17,407V403.8l3,1.16Zm-6.73-2.63-2.95-1.16-3.78,9.68,6.73,2.63V407l-9.21-3.6a1.5,1.5,0,0,1-.85-1.94L592,389a1.5,1.5,0,0,1,1.94-.85l3.25,1.27Z" transform="translate(1.49 1.49)" style="fill:#3a3732;fill-rule:evenodd"/></g><g id="f52eeb69-c6f4-4083-a441-5690131abccc" data-name="Layer 147"><rect x="611.68" y="399.81" width="13.39" height="13.39" transform="translate(16.18 836.01) rotate(-68.66)" style="fill:#a4dbf8"/></g><g id="f58e40a9-6063-4b24-8f15-a139cc4c01fc" data-name="Layer 146"><path d="M625.1,403.56l-6.73-2.63v-3.22l9.21,3.6a1.5,1.5,0,0,1,.85,1.94l-4.87,12.47a1.5,1.5,0,0,1-1.94.85l-3.25-1.27v-3.22l3,1.16Zm-6.73-2.63-3-1.15-3.78,9.67,6.73,2.63v3.22l-9.22-3.6a1.5,1.5,0,0,1-.85-1.94l4.87-12.47a1.5,1.5,0,0,1,1.94-.85l3.26,1.27Z" transform="translate(1.49 1.49)" style="fill:#3a3732;fill-rule:evenodd"/></g><g id="f7e64395-54e3-4b39-96a9-e183de0ee764" data-name="Layer 145"><polygon points="637.26 407.61 629.79 426.73 621.06 423.32 608.6 418.45 603.72 430.92 616.19 435.79 624.92 439.2 637.39 444.07 642.26 431.6 649.73 412.48 637.26 407.61" style="fill:#a4dbf8;fill-rule:evenodd"/></g><g id="bb7fcbbe-cdc2-4882-bd10-122369701371" data-name="Layer 144"><path d="M636.61,408.06l-6.92,17.72a1.5,1.5,0,0,1-1.94.85l-2.52-1v-3.22l2.22.87,6.92-17.73a1.5,1.5,0,0,1,1.94-.85l12.47,4.87a1.5,1.5,0,0,1,.85,1.94l-12.34,31.59a1.5,1.5,0,0,1-1.94.85l-10.12-4V436.8l9.81,3.84,11.25-28.8Zm-11.38,17.59L608,418.89l-3.78,9.68,21.06,8.23V440l-23.55-9.2a1.5,1.5,0,0,1-.85-1.94l4.88-12.47a1.49,1.49,0,0,1,1.93-.85l17.59,6.87Z" transform="translate(1.49 1.49)" style="fill:#3a3732;fill-rule:evenodd"/></g><g id="e9028f96-c174-44f1-b55e-f3baded25000" data-name="Layer 143"><rect x="654.07" y="416.38" width="13.39" height="13.39" transform="translate(27.71 886.03) rotate(-68.66)" style="fill:#a4dbf8"/></g><g id="eb64218a-3492-4b7b-a60e-c0c89b9febf0" data-name="Layer 142"><path d="M667.49,420.12l-6.73-2.63v-3.21l9.21,3.6a1.5,1.5,0,0,1,.85,1.94L666,432.28a1.5,1.5,0,0,1-1.94.85l-3.25-1.27v-3.21l3,1.15Zm-6.73-2.63-3-1.15L654,426l6.73,2.63v3.21l-9.22-3.6a1.5,1.5,0,0,1-.85-1.94l4.88-12.47a1.5,1.5,0,0,1,1.94-.85l3.25,1.28Z" transform="translate(1.49 1.49)" style="fill:#3a3732;fill-rule:evenodd"/></g><g id="b1989757-0d63-4f5f-872e-1e4eae6c9aab" data-name="Layer 141"><rect x="675.26" y="424.66" width="13.39" height="13.39" transform="translate(33.52 911.09) rotate(-68.66)" style="fill:#a4dbf8"/></g><g id="f9440e9b-c729-4727-9a07-a4f9c09267d5" data-name="Layer 140"><path d="M688.69,428.4,682,425.77v-3.21l9.22,3.6a1.5,1.5,0,0,1,.85,1.94l-4.87,12.47a1.49,1.49,0,0,1-1.94.84L682,440.14v-3.21l2.95,1.15ZM682,425.77,679,424.62l-3.79,9.68,6.73,2.63v3.21l-9.21-3.6a1.5,1.5,0,0,1-.85-1.94l4.87-12.46a1.5,1.5,0,0,1,1.94-.85l3.25,1.27Z" transform="translate(1.49 1.49)" style="fill:#3a3732;fill-rule:evenodd"/></g><g id="a21b9dac-4234-4cdc-ab7f-64b8d6f0db9a" data-name="Layer 139"><rect x="696.46" y="432.94" width="13.39" height="13.39" transform="translate(39.29 936.1) rotate(-68.66)" style="fill:#a4dbf8"/></g><g id="f9e98405-e6a4-4b7d-9157-ae1772aedf80" data-name="Layer 138"><path d="M709.88,436.68l-6.73-2.63v-3.21l9.21,3.6a1.49,1.49,0,0,1,.85,1.94l-4.87,12.47a1.5,1.5,0,0,1-1.94.85l-3.25-1.27v-3.22l3,1.15Zm-6.73-2.63-2.95-1.15-3.78,9.68,6.73,2.63v3.22l-9.21-3.6a1.5,1.5,0,0,1-.85-1.94L698,430.42a1.5,1.5,0,0,1,1.94-.85l3.25,1.27Z" transform="translate(1.49 1.49)" style="fill:#3a3732;fill-rule:evenodd"/></g><g id="f05d3dbf-a905-4408-83d7-9eb8e8d122cd" data-name="Layer 137"><polygon points="538.75 347.09 517.56 338.81 512.68 351.27 533.88 359.56 546.35 364.43 551.22 351.96 538.75 347.09" style="fill:#a4dbf8;fill-rule:evenodd"/></g><g id="bb5ecceb-a832-4633-b288-0c69a35324c2" data-name="Layer 136"><path d="M536.71,347l-6.25-2.45v-3.21l19.81,7.74a1.5,1.5,0,0,1,.85,1.94l-4.87,12.47a1.5,1.5,0,0,1-1.94.85l-13.85-5.42V355.7L544,361l3.79-9.68Zm-6.25-2.45-13.55-5.29-3.78,9.68,17.33,6.77v3.21l-19.81-7.74a1.49,1.49,0,0,1-.85-1.94l4.87-12.46a1.5,1.5,0,0,1,1.94-.85l13.85,5.41Z" transform="translate(1.49 1.49)" style="fill:#3a3732;fill-rule:evenodd"/></g><g id="a8e45bcc-b1e0-4ae4-9fea-3928e12c5592" data-name="Layer 135"><rect x="555.56" y="355.85" width="13.39" height="13.39" transform="translate(21.41 755.75) rotate(-68.65)" style="fill:#a4dbf8"/></g><g id="a6342687-1e53-4cf5-8944-934c23c25cec" data-name="Layer 134"><path d="M569,359.59,562.25,357v-3.21l9.21,3.6a1.49,1.49,0,0,1,.85,1.94l-4.87,12.47a1.5,1.5,0,0,1-1.94.85l-3.25-1.27v-3.22l3,1.15ZM562.25,357l-3-1.15-3.78,9.68,6.73,2.63v3.22l-9.21-3.6a1.5,1.5,0,0,1-.85-1.94l4.87-12.47a1.5,1.5,0,0,1,1.94-.85l3.25,1.27Z" transform="translate(1.49 1.49)" style="fill:#3a3732;fill-rule:evenodd"/></g><g id="faef031c-45f2-4979-aefd-16f13e04f6cc" data-name="Layer 133"><rect x="576.75" y="364.13" width="13.39" height="13.39" transform="translate(27.19 780.78) rotate(-68.66)" style="fill:#a4dbf8"/></g><g id="e1771aaa-5390-4cfe-96d6-7d0dda8aba10" data-name="Layer 132"><path d="M590.18,367.88l-6.73-2.63V362l9.21,3.6a1.5,1.5,0,0,1,.85,1.94L588.64,380a1.5,1.5,0,0,1-1.94.85l-3.25-1.27V376.4l2.94,1.16Zm-6.73-2.63-3-1.16-3.78,9.68,6.73,2.63v3.22l-9.22-3.6a1.5,1.5,0,0,1-.85-1.94l4.87-12.47a1.5,1.5,0,0,1,1.94-.85l3.26,1.27Z" transform="translate(1.49 1.49)" style="fill:#3a3732;fill-rule:evenodd"/></g><g id="fb8850e8-e14d-46ab-91e9-4a79d2ca123c" data-name="Layer 131"><rect x="597.95" y="372.41" width="13.39" height="13.39" transform="translate(32.99 805.83) rotate(-68.66)" style="fill:#a4dbf8"/></g><g id="a2c6f57b-5898-42b9-b988-4ffd93c8bff5" data-name="Layer 130"><path d="M611.37,376.16l-6.73-2.63v-3.22l9.22,3.6a1.5,1.5,0,0,1,.85,1.94l-4.88,12.47a1.49,1.49,0,0,1-1.93.85l-3.26-1.27v-3.21l3,1.15Zm-6.73-2.63-2.95-1.15-3.78,9.68,6.73,2.63v3.21l-9.21-3.6a1.5,1.5,0,0,1-.85-1.94l4.87-12.47a1.5,1.5,0,0,1,1.94-.85l3.25,1.27Z" transform="translate(1.49 1.49)" style="fill:#3a3732;fill-rule:evenodd"/></g><g id="bb9c4ea3-df6e-4872-b0f4-6495f9f311de" data-name="Layer 129"><rect x="619.14" y="380.7" width="13.39" height="13.39" transform="translate(38.74 830.81) rotate(-68.66)" style="fill:#a4dbf8"/></g><g id="a77e0341-7b6f-46a7-9e4c-02a854c87255" data-name="Layer 128"><path d="M632.57,384.44l-6.73-2.63V378.6l9.21,3.6a1.5,1.5,0,0,1,.85,1.94L631,396.6a1.5,1.5,0,0,1-1.94.85l-3.25-1.27V393l2.95,1.15Zm-6.73-2.63-3-1.15-3.78,9.68,6.73,2.63v3.21l-9.22-3.6a1.5,1.5,0,0,1-.85-1.94l4.87-12.47a1.5,1.5,0,0,1,1.94-.85l3.26,1.28Z" transform="translate(1.49 1.49)" style="fill:#3a3732;fill-rule:evenodd"/></g><g id="bbfc8d12-1627-4117-94d0-195a7f577691" data-name="Layer 127"><rect x="640.34" y="388.98" width="13.39" height="13.39" transform="translate(44.5 855.82) rotate(-68.66)" style="fill:#a4dbf8"/></g><g id="bd5a9e4f-9505-48ff-aa7c-80f6297be6d9" data-name="Layer 126"><path d="M653.76,392.72,647,390.09v-3.21l9.22,3.6a1.5,1.5,0,0,1,.85,1.94l-4.87,12.47a1.49,1.49,0,0,1-1.94.84L647,404.46v-3.21l3,1.15ZM647,390.09l-2.95-1.15-3.78,9.68,6.73,2.63v3.21l-9.21-3.6a1.5,1.5,0,0,1-.85-1.94l4.87-12.46a1.5,1.5,0,0,1,1.94-.85l3.25,1.27Z" transform="translate(1.49 1.49)" style="fill:#3a3732;fill-rule:evenodd"/></g><g id="e0ed97ce-e6e0-4d82-b265-feffb33a1041" data-name="Layer 125"><rect x="661.54" y="397.26" width="13.39" height="13.39" transform="translate(50.3 880.86) rotate(-68.66)" style="fill:#a4dbf8"/></g><g id="b36bea20-e016-49b2-b1fa-aa625c1baac4" data-name="Layer 124"><path d="M675,401l-6.73-2.63v-3.21l9.21,3.6a1.5,1.5,0,0,1,.85,1.94l-4.87,12.47a1.5,1.5,0,0,1-1.94.85l-3.25-1.28v-3.21l2.95,1.15Zm-6.73-2.63-3-1.15-3.78,9.68,6.73,2.63v3.21l-9.22-3.6a1.49,1.49,0,0,1-.85-1.93L663,394.74a1.49,1.49,0,0,1,1.93-.85l3.26,1.27Z" transform="translate(1.49 1.49)" style="fill:#3a3732;fill-rule:evenodd"/></g><g id="a4260d5e-912b-4cf1-b188-abe8ab7b406f" data-name="Layer 123"><rect x="682.73" y="405.54" width="13.39" height="13.39" transform="translate(56.04 905.83) rotate(-68.66)" style="fill:#a4dbf8"/></g><g id="ad3b1038-aed0-49ce-b49a-539d0687735b" data-name="Layer 122"><path d="M696.15,409.28l-6.73-2.63v-3.21l9.22,3.6a1.5,1.5,0,0,1,.85,1.94l-4.87,12.47a1.5,1.5,0,0,1-1.94.85L689.42,421v-3.22l3,1.15Zm-6.73-2.63-2.94-1.15-3.79,9.68,6.73,2.63V421l-9.21-3.6a1.5,1.5,0,0,1-.85-1.94L684.23,403a1.5,1.5,0,0,1,1.94-.85l3.25,1.27Z" transform="translate(1.49 1.49)" style="fill:#3a3732;fill-rule:evenodd"/></g><g id="b1ab87bb-15d1-4a8d-b1e3-bb1fded8ba53" data-name="Layer 121"><rect x="703.93" y="413.82" width="13.39" height="13.39" transform="translate(61.81 930.84) rotate(-68.66)" style="fill:#a4dbf8"/></g><g id="e3ba3efb-bfd9-4c99-aaad-850dee75240b" data-name="Layer 120"><path d="M717.35,417.57l-6.73-2.63v-3.22l9.21,3.6a1.5,1.5,0,0,1,.85,1.94l-4.87,12.47a1.5,1.5,0,0,1-1.94.85l-3.25-1.27v-3.22l3,1.16Zm-6.73-2.63-3-1.16-3.78,9.68,6.73,2.63v3.22l-9.21-3.6a1.49,1.49,0,0,1-.85-1.94l4.87-12.47a1.5,1.5,0,0,1,1.94-.85l3.25,1.27Z" transform="translate(1.49 1.49)" style="fill:#3a3732;fill-rule:evenodd"/></g><g id="b24ae75e-409b-4314-a022-415b560d8312" data-name="Layer 119"><rect x="520.64" y="320.17" width="13.39" height="13.39" transform="translate(32.48 700.58) rotate(-68.66)" style="fill:#a4dbf8"/></g><g id="ab443a55-0d66-4744-a25a-34c4bd8069a2" data-name="Layer 118"><path d="M534.06,323.91l-6.73-2.63v-3.21l9.21,3.6a1.5,1.5,0,0,1,.85,1.94l-4.87,12.47a1.5,1.5,0,0,1-1.94.85l-3.25-1.27v-3.22l2.95,1.15Zm-6.73-2.63-3-1.15-3.78,9.68,6.73,2.63v3.22l-9.21-3.6a1.5,1.5,0,0,1-.85-1.94l4.87-12.47a1.5,1.5,0,0,1,1.94-.85l3.25,1.27Z" transform="translate(1.49 1.49)" style="fill:#3a3732;fill-rule:evenodd"/></g><g id="af49762e-b810-4fbb-a662-1819bcd4d12f" data-name="Layer 117"><rect x="541.83" y="328.45" width="13.39" height="13.39" transform="translate(38.22 725.57) rotate(-68.66)" style="fill:#a4dbf8"/></g><g id="b43ee8fb-0510-41d9-9190-d48eb33f687c" data-name="Layer 116"><path d="M555.26,332.2l-6.73-2.63v-3.22l9.21,3.6a1.5,1.5,0,0,1,.85,1.94l-4.87,12.47a1.5,1.5,0,0,1-1.94.85l-3.25-1.27v-3.22l2.94,1.16Zm-6.73-2.63-2.95-1.16-3.79,9.68,6.74,2.63v3.22l-9.22-3.6a1.5,1.5,0,0,1-.85-1.94l4.87-12.47a1.5,1.5,0,0,1,1.94-.85l3.26,1.27Z" transform="translate(1.49 1.49)" style="fill:#3a3732;fill-rule:evenodd"/></g><g id="b5e4ae0a-73f8-491e-917b-af4c507d4a70" data-name="Layer 115"><rect x="563.03" y="336.73" width="13.39" height="13.39" transform="translate(44.01 750.6) rotate(-68.66)" style="fill:#a4dbf8"/></g><g id="a33cb1c2-33e2-4e9f-a144-43f250e1eb25" data-name="Layer 114"><path d="M576.45,340.48l-6.73-2.63v-3.22l9.21,3.6a1.49,1.49,0,0,1,.85,1.94l-4.87,12.47a1.5,1.5,0,0,1-1.94.85l-3.25-1.27V349l2.95,1.16Zm-6.73-2.63-3-1.15L563,346.37l6.73,2.63v3.22l-9.21-3.6a1.5,1.5,0,0,1-.85-1.94l4.87-12.47a1.5,1.5,0,0,1,1.94-.85l3.25,1.27Z" transform="translate(1.49 1.49)" style="fill:#3a3732;fill-rule:evenodd"/></g><g id="f8d0838d-7490-4260-b454-fd0a05a8acf9" data-name="Layer 113"><rect x="584.22" y="345.01" width="13.39" height="13.39" transform="translate(49.78 775.62) rotate(-68.66)" style="fill:#a4dbf8"/></g><g id="b96dee27-a032-4912-a634-7d8fd68fb6f5" data-name="Layer 112"><path d="M597.65,348.76l-6.73-2.63v-3.22l9.21,3.61a1.49,1.49,0,0,1,.85,1.93l-4.87,12.47a1.5,1.5,0,0,1-1.94.85l-3.25-1.27v-3.21l2.94,1.15Zm-6.73-2.63L588,345l-3.78,9.68,6.73,2.63v3.21l-9.22-3.6a1.5,1.5,0,0,1-.85-1.94l4.87-12.47a1.5,1.5,0,0,1,1.94-.85l3.26,1.27Z" transform="translate(1.49 1.49)" style="fill:#3a3732;fill-rule:evenodd"/></g><g id="fe534bb6-657d-4098-9945-43e249b29cb4" data-name="Layer 111"><rect x="605.42" y="353.3" width="13.39" height="13.39" transform="translate(55.52 800.58) rotate(-68.66)" style="fill:#a4dbf8"/></g><g id="b56a10e1-1059-4da9-9013-5d66536356ed" data-name="Layer 110"><path d="M618.84,357l-6.73-2.63V351.2l9.22,3.6a1.5,1.5,0,0,1,.85,1.94L617.3,369.2a1.49,1.49,0,0,1-1.93.85l-3.26-1.27v-3.21l2.95,1.15Zm-6.73-2.63-3-1.15-3.78,9.68,6.73,2.63v3.21l-9.21-3.6a1.5,1.5,0,0,1-.85-1.94l4.87-12.47a1.5,1.5,0,0,1,1.94-.85l3.25,1.28Z" transform="translate(1.49 1.49)" style="fill:#3a3732;fill-rule:evenodd"/></g><g id="a8bd2be4-9200-4e7d-80ef-a194cd8e73a7" data-name="Layer 109"><rect x="626.61" y="361.58" width="13.39" height="13.39" transform="translate(61.33 825.64) rotate(-68.66)" style="fill:#a4dbf8"/></g><g id="e31088f4-317a-42d8-a288-859d1f4c5908" data-name="Layer 108"><path d="M640,365.32l-6.73-2.63v-3.21l9.21,3.6a1.5,1.5,0,0,1,.85,1.94l-4.87,12.47a1.49,1.49,0,0,1-1.94.84l-3.25-1.27v-3.21l3,1.15Zm-6.73-2.63-2.95-1.15-3.78,9.68,6.73,2.63v3.21l-9.22-3.6a1.5,1.5,0,0,1-.85-1.94l4.87-12.46a1.5,1.5,0,0,1,1.94-.85l3.26,1.27Z" transform="translate(1.49 1.49)" style="fill:#3a3732;fill-rule:evenodd"/></g><g id="fbe2d460-6c2f-4882-b635-8b87821bbe6f" data-name="Layer 107"><rect x="647.81" y="369.86" width="13.39" height="13.39" transform="translate(67.06 850.61) rotate(-68.66)" style="fill:#a4dbf8"/></g><g id="a58cd864-2fe3-4f8f-a1ca-f861c9df2262" data-name="Layer 106"><path d="M661.23,373.6,654.5,371v-3.21l9.22,3.6a1.5,1.5,0,0,1,.85,1.94l-4.87,12.47a1.5,1.5,0,0,1-1.94.85l-3.26-1.27v-3.22l3,1.15ZM654.5,371l-3-1.15-3.78,9.68,6.73,2.63v3.22l-9.21-3.61a1.49,1.49,0,0,1-.85-1.93l4.87-12.47a1.5,1.5,0,0,1,1.94-.85l3.25,1.27Z" transform="translate(1.49 1.49)" style="fill:#3a3732;fill-rule:evenodd"/></g><g id="b1325ef1-08d7-4287-9839-a43084b62f4e" data-name="Layer 105"><rect x="669" y="378.14" width="13.39" height="13.39" transform="translate(72.83 875.63) rotate(-68.66)" style="fill:#a4dbf8"/></g><g id="eb17dd49-c893-4fe7-9828-0383565acaf9" data-name="Layer 104"><path d="M682.43,381.89l-6.73-2.63V376l9.21,3.6a1.5,1.5,0,0,1,.85,1.94l-4.87,12.47a1.5,1.5,0,0,1-1.94.85l-3.25-1.27v-3.22l2.95,1.16Zm-6.73-2.63-3-1.16L669,387.78l6.73,2.63v3.22l-9.22-3.6a1.5,1.5,0,0,1-.85-1.94l4.88-12.47a1.49,1.49,0,0,1,1.93-.85L675.7,376Z" transform="translate(1.49 1.49)" style="fill:#3a3732;fill-rule:evenodd"/></g><g id="a7cf86e2-4e5b-4317-9c17-4c141d9be3d9" data-name="Layer 103"><rect x="690.2" y="386.42" width="13.39" height="13.39" transform="translate(78.62 900.66) rotate(-68.66)" style="fill:#a4dbf8"/></g><g id="b2974a8d-d724-45e6-9b45-b8dcd98c2056" data-name="Layer 102"><path d="M703.62,390.17l-6.73-2.63v-3.22l9.22,3.6a1.5,1.5,0,0,1,.85,1.94l-4.87,12.47a1.5,1.5,0,0,1-1.94.85l-3.26-1.27v-3.22l3,1.16Zm-6.73-2.63L694,386.39l-3.79,9.67,6.73,2.63v3.22l-9.21-3.6a1.5,1.5,0,0,1-.85-1.94l4.87-12.47a1.5,1.5,0,0,1,1.94-.85l3.25,1.27Z" transform="translate(1.49 1.49)" style="fill:#3a3732;fill-rule:evenodd"/></g><g id="e7796ce0-8c8f-4c4f-b7f8-5286575ccc9c" data-name="Layer 101"><rect x="711.4" y="394.7" width="13.39" height="13.39" transform="translate(84.36 925.64) rotate(-68.66)" style="fill:#a4dbf8"/></g><g id="bc371a12-5a22-4a5a-aa75-cf1f635a606c" data-name="Layer 100"><path d="M724.82,398.45l-6.73-2.63V392.6l9.21,3.6a1.5,1.5,0,0,1,.85,1.94l-4.87,12.47a1.5,1.5,0,0,1-1.94.85l-3.25-1.27V407l2.95,1.15Zm-6.73-2.63-3-1.15-3.78,9.68,6.73,2.63v3.21l-9.21-3.6a1.5,1.5,0,0,1-.85-1.94l4.87-12.47a1.5,1.5,0,0,1,1.94-.85l3.25,1.27Z" transform="translate(1.49 1.49)" style="fill:#3a3732;fill-rule:evenodd"/></g><g id="f0bbc40e-cec3-4e12-a983-28ee084febc9" data-name="Layer 99"><path d="M288.68,311.41l-5.07,3.46,86.27-28.93a4.32,4.32,0,0,0-3.78-.5Z" transform="translate(1.49 1.49)" style="fill:#a4dbf8;fill-rule:evenodd"/></g><g id="a7968f83-4644-4898-b25d-fa9e7c7c7357" data-name="Layer 98"><path d="M356.48,288.39,324.6,299.07v-3.15L357,285.07a1.49,1.49,0,0,1,1.89.95l3.9,11.62a1.51,1.51,0,0,1-.94,1.9L324.6,312v-3.16l34.83-11.67ZM324.6,299.07l-34.83,11.68,3,8.79,31.88-10.69V312l-32.35,10.85a1.5,1.5,0,0,1-1.89-.95l-3.9-11.63a1.49,1.49,0,0,1,1-1.89l37.19-12.47Z" transform="translate(1.49 1.49)" style="fill:#3a3732;fill-rule:evenodd"/></g><g id="fbfadc0e-47dc-44b6-a0b8-ff9c1e38b69e" data-name="Layer 97"><path d="M365.54,283.77l-8.12,2.72,3.9,11.63,8.12-2.72a6.13,6.13,0,0,0,3.86-7.77h0A6.12,6.12,0,0,0,365.54,283.77Z" transform="translate(1.49 1.49)" style="fill:#a4dbf8;fill-rule:evenodd"/></g><g id="bc361596-06ed-4a7e-b85e-0e82c4b7e15b" data-name="Layer 96"><path d="M366,285.19l-.29.1v-3.13a7.63,7.63,0,0,1,4.19,14.66l-4.19,1.4v-3.15L369,294a4.66,4.66,0,0,0,2.68-2.33,4.64,4.64,0,0,0-5.63-6.46Zm-.29.1-6.4,2.14,2.95,8.8,3.45-1.16v3.15l-3.92,1.32a1.49,1.49,0,0,1-1.89-1L356,287a1.5,1.5,0,0,1,.94-1.9l8.11-2.72.66-.19Z" transform="translate(1.49 1.49)" style="fill:#3a3732;fill-rule:evenodd"/></g><g id="e0a51b87-d0c2-4ad7-be62-2d93e7e6d148" data-name="Layer 95"><path d="M282.13,320.39l7.6-.35-2.64-7.88-5,3.4v-3.63l4.91-3.36a1.82,1.82,0,0,1,.37-.18,1.49,1.49,0,0,1,1.89.95l3.88,11.57a1.39,1.39,0,0,1,.09.46,1.5,1.5,0,0,1-1.42,1.56l-9.72.46Zm-7.6.36,7.6-.36v3l-12.67.6a1.5,1.5,0,0,1-1-2.73l13.64-9.33v3.63Z" transform="translate(1.49 1.49)" style="fill:#3a3732;fill-rule:evenodd"/></g><g id="ab86af95-58c6-410f-a032-e1b5aa441bb2" data-name="Layer 94"><path d="M278.51,315.73a1.49,1.49,0,1,1,2.83-1l2.23,6.64a1.5,1.5,0,0,1-2.84.95Z" transform="translate(1.49 1.49)" style="fill:#3a3732;fill-rule:evenodd"/></g><g id="b0199610-d6c8-4570-a5ab-e1661bde8226" data-name="Layer 93"><rect x="232.84" y="334.99" width="174.47" height="97.15" transform="translate(-103.84 123.15) rotate(-18.54)" style="fill:#fff"/></g><g id="a42f07c4-db55-4511-9621-c85a2d979d0e" data-name="Layer 92"><path d="M418.7,403.31l-98.62,33.07v-3.16L416.34,401,386.4,311.67l-66.32,22.24v-3.15l66.79-22.4a1.5,1.5,0,0,1,1.89.94l30.89,92.11A1.5,1.5,0,0,1,418.7,403.31Zm-98.62,33.07-66.8,22.39a1.49,1.49,0,0,1-1.89-.94L220.5,365.72a1.49,1.49,0,0,1,.95-1.89l98.63-33.07v3.15l-96.26,32.28,29.93,89.27,66.33-22.24Z" transform="translate(1.49 1.49)" style="fill:#3a3732;fill-rule:evenodd"/></g><g id="a2d43eb7-7d59-419c-b479-ccface092aa4" data-name="Layer 91"><rect x="248.06" y="347.13" width="159.18" height="81.06" transform="translate(-104.75 125.77) rotate(-18.54)" style="fill:#a4dbf8"/></g><g id="fb70af0b-2933-462e-8fcb-9f07290c0020" data-name="Layer 90"><path d="M248.19,356.44a1.5,1.5,0,1,1,2.84-.95l30.88,92.11a1.49,1.49,0,0,1-2.83.95Z" transform="translate(1.49 1.49)" style="fill:#3a3732;fill-rule:evenodd"/></g><g id="bf4583e7-5155-487e-af2f-09cd1194ae44" data-name="Layer 89"><path d="M371.8,315a1.5,1.5,0,0,1,2.84-.95l30.88,92.11a1.49,1.49,0,1,1-2.83,1Z" transform="translate(1.49 1.49)" style="fill:#3a3732;fill-rule:evenodd"/></g><g id="a1492b80-9a4e-4013-8231-7854cac178a2" data-name="Layer 88"><path d="M253.32,367a1.5,1.5,0,0,1-.95-2.84L376,322.75a1.5,1.5,0,0,1,.95,2.84Z" transform="translate(1.49 1.49)" style="fill:#3a3732;fill-rule:evenodd"/></g><g id="ff234eaf-cd11-4c72-863a-3d0a9fe8b3ae" data-name="Layer 87"><path d="M277.73,439.84a1.5,1.5,0,0,1-1-2.84l123.61-41.45a1.5,1.5,0,1,1,.95,2.84Z" transform="translate(1.49 1.49)" style="fill:#3a3732;fill-rule:evenodd"/></g><g id="b656aec2-da26-42f2-99cf-6be7cb80228e" data-name="Layer 86"><path d="M291.55,415.19a1.5,1.5,0,0,1,.95,2.84l-19.85,6.65a1.49,1.49,0,0,1-.95-2.83Z" transform="translate(1.49 1.49)" style="fill:#3a3732;fill-rule:evenodd"/></g><g id="ad040abd-96dd-47a6-918a-bcfe13e3b20e" data-name="Layer 85"><path d="M286.8,401a1.49,1.49,0,1,1,.95,2.83l-19.85,6.66a1.5,1.5,0,0,1-.95-2.84Z" transform="translate(1.49 1.49)" style="fill:#3a3732;fill-rule:evenodd"/></g><g id="b90c801b-475f-4d2a-9dba-0a4dc90ab4d4" data-name="Layer 84"><path d="M282.05,386.86a1.5,1.5,0,0,1,.95,2.84l-19.85,6.65a1.49,1.49,0,0,1-.95-2.83Z" transform="translate(1.49 1.49)" style="fill:#3a3732;fill-rule:evenodd"/></g><g id="b2dc95f3-d90f-468b-bca6-385feab9aa52" data-name="Layer 83"><path d="M277.3,372.7a1.49,1.49,0,0,1,.95,2.83l-19.85,6.66a1.5,1.5,0,0,1-.95-2.84Z" transform="translate(1.49 1.49)" style="fill:#3a3732;fill-rule:evenodd"/></g><g id="a1d90466-1570-43bf-8cc2-26505d726ff4" data-name="Layer 82"><path d="M251.49,397.6a9,9,0,0,1,2.85,17.47,9.18,9.18,0,0,1-2.85.46v-3a6,6,0,0,0,1.9-.31h0a6,6,0,0,0-1.9-11.64ZM243,409.42a9,9,0,0,1,5.65-11.36,9.18,9.18,0,0,1,2.85-.46v3a6,6,0,0,0-5.67,7.87h0a6,6,0,0,0,5.66,4.07v3a8.75,8.75,0,0,1-4-.94A8.93,8.93,0,0,1,243,409.42Z" transform="translate(1.49 1.49)" style="fill:#3a3732;fill-rule:evenodd"/></g><g id="b200137c-faa6-415d-aeab-fec7513eba90" data-name="Layer 81"><rect x="402.55" y="344.6" width="9.02" height="19.6" transform="translate(-90.05 149.27) rotate(-18.53)" style="fill:#a4dbf8"/></g><g id="bbdfef58-1000-4c5e-a9f9-a5b07dba5ffd" data-name="Layer 80"><path d="M414.92,363.68l-7.86,2.63v-3.15l5.5-1.84-5.29-15.75-.21.07v-3.15l.68-.23a1.49,1.49,0,0,1,1.89.94l6.24,18.59A1.49,1.49,0,0,1,414.92,363.68Zm-7.86,2.63-.68.23a1.5,1.5,0,0,1-1.9-.94L398.25,347a1.51,1.51,0,0,1,.94-1.9l7.87-2.63v3.15l-5.5,1.84,5.28,15.75.22-.07Z" transform="translate(1.49 1.49)" style="fill:#3a3732;fill-rule:evenodd"/></g><g id="b3189d4d-bfe1-413f-872d-0cdf2885dccd" data-name="Layer 79"><rect x="293.29" y="489.56" width="138.23" height="101.02" transform="translate(-243.6 773.86) rotate(-77.06)" style="fill:#fff"/></g><g id="e36b3e6c-97f8-4648-90b9-f29fe7a84581" data-name="Layer 78"><path d="M395.82,620.2l-33.42-7.68v-3.07L395,617l30.28-131.81L362.4,470.69v-3.07l65,14.94a1.5,1.5,0,0,1,1.13,1.79L397.62,619.08A1.51,1.51,0,0,1,395.82,620.2Zm-33.42-7.68-65-14.94a1.49,1.49,0,0,1-1.13-1.79l30.95-134.72a1.5,1.5,0,0,1,1.79-1.13l33.42,7.68v3.07l-32.63-7.49L299.5,595l62.9,14.45Z" transform="translate(1.49 1.49)" style="fill:#3a3732;fill-rule:evenodd"/></g><g id="ebff403f-6283-4a90-9c4e-8054c5bb0a47" data-name="Layer 77"><rect x="341.88" y="491.53" width="21.46" height="21.46" transform="translate(-214.34 734.96) rotate(-77.06)" style="fill:#fff"/></g><g id="a71b34e0-55dc-4a00-b8f2-16d86f9bc7a7" data-name="Layer 76"><path d="M360.33,516.57l-7.72-1.77v-3.07l6.93,1.59,4.14-18-11.07-2.54v-3.07l13.19,3a1.5,1.5,0,0,1,1.13,1.79l-4.81,20.92A1.49,1.49,0,0,1,360.33,516.57Zm-7.72-1.77-13.19-3a1.5,1.5,0,0,1-1.13-1.79l4.81-20.92a1.49,1.49,0,0,1,1.79-1.12l7.72,1.77v3.07l-6.93-1.59-4.14,18,11.07,2.54Z" transform="translate(1.49 1.49)" style="fill:#3a3732;fill-rule:evenodd"/></g><g id="b38ef911-a9b0-420a-aa66-6c2eb76fcae6" data-name="Layer 75"><path d="M335.65,529a1.5,1.5,0,1,1,.67-2.92L392.15,539a1.49,1.49,0,0,1,1.13,1.79,1.51,1.51,0,0,1-1.8,1.13Z" transform="translate(1.49 1.49)" style="fill:#3a3732;fill-rule:evenodd"/></g><g id="a1783558-2ed0-41d7-adeb-db21dad5e241" data-name="Layer 74"><path d="M332.76,541.63a1.5,1.5,0,1,1,.67-2.92l55.83,12.82a1.5,1.5,0,1,1-.67,2.92Z" transform="translate(1.49 1.49)" style="fill:#3a3732;fill-rule:evenodd"/></g><g id="e4986918-fa07-4569-ad6d-c3c127b203d9" data-name="Layer 73"><path d="M329.87,554.21a1.5,1.5,0,1,1,.66-2.92l55.84,12.83a1.5,1.5,0,0,1-.67,2.92Z" transform="translate(1.49 1.49)" style="fill:#3a3732;fill-rule:evenodd"/></g><g id="f140f0fa-8c6d-4656-ae53-b8c5bb733657" data-name="Layer 72"><path d="M327,566.8a1.51,1.51,0,0,1-1.13-1.8,1.49,1.49,0,0,1,1.79-1.12l55.84,12.82a1.5,1.5,0,0,1-.67,2.92Z" transform="translate(1.49 1.49)" style="fill:#3a3732;fill-rule:evenodd"/></g><g id="b5cc95b6-7dbd-41c2-9c1c-20ef37bfc272" data-name="Layer 71"><path d="M324.08,579.38a1.5,1.5,0,0,1,.67-2.92l55.84,12.83a1.5,1.5,0,0,1-.67,2.92Z" transform="translate(1.49 1.49)" style="fill:#3a3732;fill-rule:evenodd"/></g><g id="a2a6c1d0-7699-49f7-b92a-2970d3cc9c18" data-name="Layer 70"><rect x="733.38" y="516.63" width="142.71" height="118.07" transform="translate(-71.01 1034.81) rotate(-63.13)" style="fill:#fff"/></g><g id="a5ac8183-31af-4586-9f6e-e08c9eba5580" data-name="Layer 69"><path d="M824.47,667.34l-19.74-10V654l19.75,10,63.15-124.63-82.9-42V494l85.59,43.37a1.5,1.5,0,0,1,.66,2l-64.5,127.3A1.51,1.51,0,0,1,824.47,667.34Zm-19.74-10L719.15,614a1.5,1.5,0,0,1-.67-2L783,484.66a1.49,1.49,0,0,1,2-.66l19.73,10v3.35l-19.75-10L721.83,612l82.9,42Z" transform="translate(1.49 1.49)" style="fill:#3a3732;fill-rule:evenodd"/></g><g id="eb6c3e87-d53d-40bc-a79a-7732c7c86a90" data-name="Layer 68"><rect x="718.47" y="512.72" width="157.05" height="118.07" transform="translate(-71.76 1025.76) rotate(-63.13)" style="fill:#fff"/></g><g id="b0b011b6-de3d-4017-a585-ad099dbf39d2" data-name="Layer 67"><path d="M813.49,669.82,797,661.46V658.1l16.51,8.37L883.14,529,797,485.4V482l88.83,45a1.5,1.5,0,0,1,.66,2l-71,140.09A1.5,1.5,0,0,1,813.49,669.82ZM797,661.46l-88.83-45a1.49,1.49,0,0,1-.66-2l71-140.09a1.49,1.49,0,0,1,2-.67L797,482v3.36L780.49,477,710.86,614.46,797,658.1Z" transform="translate(1.49 1.49)" style="fill:#3a3732;fill-rule:evenodd"/></g><g id="ba4542a9-2189-4667-b454-befed0a681de" data-name="Layer 66"><rect x="714.98" y="517.87" width="153.32" height="102.33" transform="translate(-72.27 1019.49) rotate(-63.13)" style="fill:#a4dbf8"/></g><g id="fb2bc913-5d52-4e66-a97c-08704d45ef7a" data-name="Layer 65"><rect x="810.44" y="550.87" width="27.09" height="60.88" transform="translate(-65.49 1055.07) rotate(-63.13)" style="fill:#fff"/></g><g id="b7d9075d-9df4-46f2-b1d3-8e74aa58270f" data-name="Layer 64"><path d="M844.34,608.48,824,598.16v-3.35l20.37,10.32,10.9-21.49L824,567.8v-3.36l33.95,17.21a1.49,1.49,0,0,1,.66,2l-12.24,24.16A1.5,1.5,0,0,1,844.34,608.48ZM824,598.16,790,581a1.49,1.49,0,0,1-.66-2l12.24-24.16a1.5,1.5,0,0,1,2-.66L824,564.44v3.36l-20.37-10.32L792.72,579,824,594.81Z" transform="translate(1.49 1.49)" style="fill:#3a3732;fill-rule:evenodd"/></g><g id="a8959a51-bd79-4403-b40c-8b5bd4fac4c5" data-name="Layer 63"><rect x="673" y="540.65" width="157.05" height="16.12" transform="translate(-76.14 972.54) rotate(-63.13)" style="fill:#a4dbf8"/></g><g id="b3afd75c-d59d-46a4-9e55-faa8db4b4751" data-name="Layer 62"><path d="M751.53,527.57l27-53.22a1.49,1.49,0,0,1,2-.67L794.89,481a1.5,1.5,0,0,1,.66,2l-44,86.88v-6.62L792.2,483,780.49,477l-29,57.16Zm-29,96.17-14.38-7.29a1.49,1.49,0,0,1-.66-2l44-86.87v6.62l-40.67,80.27,11.71,5.93,29-57.15v6.62l-27,53.22A1.5,1.5,0,0,1,722.55,623.74Z" transform="translate(1.49 1.49)" style="fill:#3a3732;fill-rule:evenodd"/></g><g id="f9190978-0f6f-4fc2-8548-8ac5b24ccfa6" data-name="Layer 61"><rect x="583.82" y="595.99" width="78.62" height="14.08" transform="translate(-150.7 992.86) rotate(-70.67)" style="fill:#a4dbf8"/></g><g id="b0b1cd91-39e2-4319-a346-f2ab5f66c12f" data-name="Layer 60"><path d="M623.13,577.26l5-14.14a1.48,1.48,0,0,1,1.9-.92l13.29,4.66a1.49,1.49,0,0,1,.92,1.9l-21.08,60v-9l17.76-50.59-10.47-3.68-7.29,20.78Zm-6.86,66.61L603,639.21a1.51,1.51,0,0,1-.92-1.91l21.07-60v9l-17.75,50.59,10.46,3.67,7.29-20.77v9l-5,14.14A1.49,1.49,0,0,1,616.27,643.87Z" transform="translate(1.49 1.49)" style="fill:#3a3732;fill-rule:evenodd"/></g><g id="b6b008a7-63f4-447b-9b3e-d04739bd55f6" data-name="Layer 59"><path d="M641.45,550.83h0a4.27,4.27,0,0,0-5.45,2.62l-3.88,11.07,8.07,2.83,3.88-11.07A4.28,4.28,0,0,0,641.45,550.83Z" transform="translate(1.49 1.49)" style="fill:#a4dbf8;fill-rule:evenodd"/></g><g id="aeb59bcd-78f8-4866-84da-68e995fc6954" data-name="Layer 58"><path d="M641,552.24a2.79,2.79,0,0,0-2.13.12,3.38,3.38,0,0,0-.41.24v-3.27a5.77,5.77,0,0,1,7.06,7.45l-3.88,11.07a1.5,1.5,0,0,1-1.91.92l-1.27-.45v-3.17l.85.3,3.39-9.66a2.79,2.79,0,0,0-1.7-3.55Zm-2.54.36a2.79,2.79,0,0,0-1,1.34L634,563.61l4.4,1.54v3.17l-6.8-2.39a1.49,1.49,0,0,1-.92-1.9L634.59,553a5.78,5.78,0,0,1,2.95-3.29,5.52,5.52,0,0,1,.88-.34Z" transform="translate(1.49 1.49)" style="fill:#3a3732;fill-rule:evenodd"/></g><g id="a9002690-5fd0-40ea-b30d-af4260c91f64" data-name="Layer 57"><path d="M603.47,637.79l.95,11a2.76,2.76,0,0,0,4.75,1.67l7.59-8Z" transform="translate(1.49 1.49)" style="fill:#a4dbf8;fill-rule:evenodd"/></g><g id="f531844f-2535-4feb-a474-bc0d71d8c14a" data-name="Layer 56"><path d="M609.62,647.78l4.46-4.68-4.46-1.56v-3.17L617.2,641a1.47,1.47,0,0,1,.59.34,1.5,1.5,0,0,1,.05,2.12l-7.59,8a4.6,4.6,0,0,1-.63.55ZM605.17,640l.74,8.67a1.23,1.23,0,0,0,.37.79,1.2,1.2,0,0,0,.47.29,1.39,1.39,0,0,0,.54.07h0a1.3,1.3,0,0,0,.77-.39l1.53-1.62V652a4.12,4.12,0,0,1-2,.76h-.05a4.2,4.2,0,0,1-1.79-.24,4.29,4.29,0,0,1-1.54-.94,4.2,4.2,0,0,1-1.3-2.71l-.94-11h0a1.63,1.63,0,0,1,.08-.62,1.5,1.5,0,0,1,1.91-.92l5.65,2v3.17Z" transform="translate(1.49 1.49)" style="fill:#3a3732;fill-rule:evenodd"/></g><g id="a913cd69-a158-47d1-a276-3d11a2c28bff" data-name="Layer 55"><rect x="603.85" y="624.25" width="18.73" height="14.08" transform="translate(-184.03 1002.33) rotate(-70.66)" style="fill:#fff"/></g><g id="a96f9243-a98b-47b4-84a1-eb4017081a8e" data-name="Layer 54"><path d="M621.06,625.7l-7.84-2.76v-3.16l10.23,3.59a1.48,1.48,0,0,1,.92,1.9L618.17,643a1.49,1.49,0,0,1-1.9.92l-3-1.07v-3.17l2.62.92Zm-7.84-2.76-2.63-.92-5.21,14.86,7.84,2.75v3.17L603,639.21a1.51,1.51,0,0,1-.92-1.91l6.2-17.67a1.5,1.5,0,0,1,1.91-.92l3.05,1.07Z" transform="translate(1.49 1.49)" style="fill:#3a3732;fill-rule:evenodd"/></g><g id="f481527a-dd6f-4b4d-821b-f6039fadbeed" data-name="Layer 53"><path d="M626.57,572a1.5,1.5,0,0,1,1-2.83l19.93,7a1.49,1.49,0,0,1,.92,1.9L637,610.6a1.49,1.49,0,1,1-2.82-1l10.92-31.13Z" transform="translate(1.49 1.49)" style="fill:#3a3732;fill-rule:evenodd"/></g><g id="a07bfdd8-ad4a-41f2-b4aa-59a736120ff2" data-name="Layer 52"><path d="M105.34,496.11l-62.9,20.35a9.5,9.5,0,0,1-12-6.11L4.67,430.56a9.49,9.49,0,0,1,6.11-12l62.9-20.35a9.51,9.51,0,0,1,12,6.12l25.81,79.78A9.5,9.5,0,0,1,105.34,496.11Z" transform="translate(1.49 1.49)" style="fill:#fff;fill-rule:evenodd"/></g><g id="f8213322-c57d-47ff-a207-4ff595cfbc73" data-name="Layer 51"><path d="M105.79,497.53,58.06,513v-3.14l46.82-15.15A8,8,0,0,0,110,484.61L84.21,404.82a8,8,0,0,0-10.08-5.14l-16.07,5.2v-3.15l15.16-4.9a11,11,0,0,1,13.84,7.08l25.81,79.78a11,11,0,0,1-7.08,13.84ZM58.06,513l-15.16,4.9a11,11,0,0,1-13.84-7.07L3.24,431a11,11,0,0,1,7.08-13.84l47.74-15.45v3.15L11.24,420A8,8,0,0,0,6.09,430.1L31.9,509.89A8,8,0,0,0,42,515l16.08-5.2Z" transform="translate(1.49 1.49)" style="fill:#3a3732;fill-rule:evenodd"/></g><g id="f98e098a-c8b4-486f-8923-7aff02b3e3d4" data-name="Layer 50"><rect x="16.82" y="419.84" width="63.36" height="16.6" transform="translate(-127.95 37.21) rotate(-17.93)" style="fill:#fff"/></g><g id="a0a66200-9abe-4300-a26c-8805f1dd9bab" data-name="Layer 49"><path d="M81.65,427.71,48.5,438.44V435.3l30.81-10-4.19-12.95L48.5,421v-3.14l27.13-8.78a1.5,1.5,0,0,1,1.88,1l5.11,15.79A1.49,1.49,0,0,1,81.65,427.71ZM48.5,438.44l-27.13,8.78a1.49,1.49,0,0,1-1.88-1l-5.11-15.8a1.5,1.5,0,0,1,1-1.88L48.5,417.85V421L17.68,431l4.19,13L48.5,435.3Z" transform="translate(1.49 1.49)" style="fill:#3a3732;fill-rule:evenodd"/></g><g id="bd539091-82a3-488e-afc8-e34fb5671082" data-name="Layer 48"><rect x="24.89" y="424.73" width="53.89" height="8.84" transform="translate(-128.1 38.29) rotate(-17.93)" style="fill:#a4dbf8"/></g><g id="bccc1a11-207d-42c8-a5c6-a5cf8f775741" data-name="Layer 47"><path d="M40.54,456.68l-8.64,2.8v-3.14l6.3-2-.87-2.67-5.43,1.76v-3.15l5.94-1.92a1.5,1.5,0,0,1,1.88,1l1.78,5.51A1.49,1.49,0,0,1,40.54,456.68Zm-8.64,2.8L26,461.4a1.49,1.49,0,0,1-1.88-1l-1.79-5.51a1.49,1.49,0,0,1,1-1.88l8.64-2.8v3.15l-6.3,2,.86,2.67,5.44-1.75Z" transform="translate(1.49 1.49)" style="fill:#3a3732;fill-rule:evenodd"/></g><g id="a862be57-d916-484e-a518-59781886cb4c" data-name="Layer 46"><rect x="47.09" y="444.57" width="15.32" height="5.8" transform="translate(-133.59 40.08) rotate(-17.93)" style="fill:#a4dbf8"/></g><g id="b3deb364-57ad-41c7-a647-62276e3a55be" data-name="Layer 45"><path d="M63.39,449.29l-8.64,2.8v-3.15l6.3-2-.87-2.67L54.75,446v-3.14l5.94-1.92a1.49,1.49,0,0,1,1.88,1l1.79,5.52A1.5,1.5,0,0,1,63.39,449.29Zm-8.64,2.8L48.81,454a1.49,1.49,0,0,1-1.88-1l-1.79-5.52a1.51,1.51,0,0,1,1-1.88l8.64-2.79V446l-6.3,2,.87,2.67,5.43-1.76Z" transform="translate(1.49 1.49)" style="fill:#3a3732;fill-rule:evenodd"/></g><g id="aab5d850-0d80-4d61-9073-39e105fcaf91" data-name="Layer 44"><rect x="69.94" y="437.17" width="15.32" height="5.8" transform="translate(-130.19 46.74) rotate(-17.93)" style="fill:#a4dbf8"/></g><g id="b38172e0-5760-4f89-84e6-a01993564efa" data-name="Layer 43"><path d="M86.24,441.9l-8.64,2.79v-3.14l6.3-2L83,436.84,77.6,438.6v-3.15l5.94-1.92a1.49,1.49,0,0,1,1.88,1L87.21,440A1.5,1.5,0,0,1,86.24,441.9Zm-8.64,2.79-5.94,1.92a1.49,1.49,0,0,1-1.88-1L68,440.13a1.49,1.49,0,0,1,1-1.88l8.64-2.8v3.15l-6.3,2,.87,2.67,5.43-1.76Z" transform="translate(1.49 1.49)" style="fill:#3a3732;fill-rule:evenodd"/></g><g id="bbdfcdb2-4cfd-4780-aceb-be0c32a15466" data-name="Layer 42"><rect x="29.98" y="468.65" width="15.32" height="7.94" transform="translate(-142.15 36.03) rotate(-17.93)" style="fill:#fff"/></g><g id="f0849f78-61d1-4906-9d5f-b505f091aac6" data-name="Layer 41"><path d="M46.61,475.47l-9,2.9v-3.14l6.62-2.15-1.52-4.71L37.65,470v-3.14l5.6-1.81a1.5,1.5,0,0,1,1.89,1l2.44,7.56A1.49,1.49,0,0,1,46.61,475.47Zm-9,2.9L32,480.19a1.51,1.51,0,0,1-1.89-1l-2.44-7.56a1.5,1.5,0,0,1,1-1.88l9-2.9V470L31,472.17l1.52,4.71,5.11-1.65Z" transform="translate(1.49 1.49)" style="fill:#3a3732;fill-rule:evenodd"/></g><g id="a9865273-3d91-4126-9d26-912184e879fa" data-name="Layer 40"><rect x="52.84" y="461.26" width="15.32" height="7.94" transform="translate(-138.79 42.71) rotate(-17.93)" style="fill:#fff"/></g><g id="a1b4aa9a-2525-47ec-abb8-c2e3f9f91c83" data-name="Layer 39"><path d="M69.47,468.08l-9,2.9v-3.14l6.63-2.15L65.6,461l-5.1,1.65v-3.14l5.61-1.82a1.5,1.5,0,0,1,1.88,1l2.44,7.56A1.5,1.5,0,0,1,69.47,468.08Zm-9,2.9-5.61,1.81a1.49,1.49,0,0,1-1.88-1l-2.45-7.56a1.49,1.49,0,0,1,1-1.88l9-2.9v3.14l-6.63,2.14,1.52,4.72,5.11-1.65Z" transform="translate(1.49 1.49)" style="fill:#3a3732;fill-rule:evenodd"/></g><g id="eae00366-0f89-4bf0-aae4-b06cbf2428f9" data-name="Layer 38"><rect x="75.69" y="453.87" width="15.32" height="7.94" transform="translate(-135.4 49.39) rotate(-17.93)" style="fill:#a4dbf8"/></g><g id="be16ab15-ba06-45e3-ada4-43f153961699" data-name="Layer 37"><path d="M92.32,460.68l-9,2.9v-3.14L90,458.3l-1.53-4.71-5.1,1.65v-3.15L89,450.28a1.49,1.49,0,0,1,1.88,1l2.45,7.55A1.49,1.49,0,0,1,92.32,460.68Zm-9,2.9-5.61,1.82a1.49,1.49,0,0,1-1.88-1l-2.45-7.55a1.5,1.5,0,0,1,1-1.88l9-2.91v3.15l-6.63,2.14,1.53,4.71,5.1-1.65Z" transform="translate(1.49 1.49)" style="fill:#3a3732;fill-rule:evenodd"/></g><g id="aefeb466-b048-4491-9db7-a4609ad06ce3" data-name="Layer 36"><rect x="34.37" y="482.21" width="15.32" height="7.94" transform="translate(-146.13 38.04) rotate(-17.93)" style="fill:#fff"/></g><g id="f591eb77-7615-402e-a505-e655551b0807" data-name="Layer 35"><path d="M51,489l-9,2.9v-3.14l6.63-2.15-1.52-4.71L42,483.58v-3.14l5.61-1.82a1.49,1.49,0,0,1,1.88,1L52,487.15A1.5,1.5,0,0,1,51,489Zm-9,2.9-5.61,1.82a1.51,1.51,0,0,1-1.88-1l-2.44-7.56a1.49,1.49,0,0,1,1-1.88l9-2.9v3.14l-6.63,2.15,1.53,4.71,5.1-1.65Z" transform="translate(1.49 1.49)" style="fill:#3a3732;fill-rule:evenodd"/></g><g id="f01c407f-ed2d-4144-8151-a4ece4008738" data-name="Layer 34"><rect x="57.22" y="474.82" width="15.32" height="7.94" transform="translate(-142.72 44.71) rotate(-17.93)" style="fill:#fff"/></g><g id="a70a0916-2743-4dbf-ba8f-9288dba5aa0c" data-name="Layer 33"><path d="M73.85,481.64l-9,2.9v-3.15l6.63-2.14L70,474.54l-5.11,1.65V473l5.61-1.81a1.49,1.49,0,0,1,1.88,1l2.45,7.55A1.51,1.51,0,0,1,73.85,481.64Zm-9,2.9-5.61,1.81a1.5,1.5,0,0,1-1.88-1L55,477.83a1.49,1.49,0,0,1,1-1.88l9-2.91v3.15l-6.62,2.14L59.78,483l5.1-1.65Z" transform="translate(1.49 1.49)" style="fill:#3a3732;fill-rule:evenodd"/></g><g id="a53c0d45-1b46-484c-aba8-52419f228200" data-name="Layer 32"><rect x="80.08" y="467.42" width="15.32" height="7.94" transform="translate(-139.36 51.4) rotate(-17.93)" style="fill:#a4dbf8"/></g><g id="a2c151ef-f41e-48fa-aa4f-633dd276b4cc" data-name="Layer 31"><path d="M96.71,474.24l-9,2.9V474l6.63-2.15-1.53-4.71-5.1,1.65v-3.14l5.61-1.81a1.5,1.5,0,0,1,1.88,1l2.44,7.56A1.5,1.5,0,0,1,96.71,474.24Zm-9,2.9L82.13,479a1.49,1.49,0,0,1-1.88-1l-2.45-7.56a1.5,1.5,0,0,1,1-1.88l9-2.9v3.14l-6.63,2.15,1.52,4.71L87.74,474Z" transform="translate(1.49 1.49)" style="fill:#3a3732;fill-rule:evenodd"/></g><g id="b67f6459-ccdb-40ae-a5a4-dcd36cf71293" data-name="Layer 30"><rect x="38.76" y="495.77" width="15.32" height="7.94" transform="translate(-150.1 40.06) rotate(-17.93)" style="fill:#fff"/></g><g id="ba94fc07-8c6f-4cdd-976e-1ed9bf6aff6f" data-name="Layer 29"><path d="M55.39,502.59l-9,2.9v-3.15l6.63-2.14-1.53-4.71-5.1,1.65V494L52,492.18a1.5,1.5,0,0,1,1.88,1l2.44,7.56A1.5,1.5,0,0,1,55.39,502.59Zm-9,2.9-5.61,1.81a1.49,1.49,0,0,1-1.88-1l-2.45-7.56a1.49,1.49,0,0,1,1-1.88l9-2.9v3.14l-6.63,2.14L41.31,504l5.11-1.66Z" transform="translate(1.49 1.49)" style="fill:#3a3732;fill-rule:evenodd"/></g><g id="e8471bfd-7f8e-4508-bee4-2d71ee6683e0" data-name="Layer 28"><rect x="61.61" y="488.38" width="15.32" height="7.94" transform="translate(-146.71 46.73) rotate(-17.93)" style="fill:#fff"/></g><g id="af74f34f-b53b-434c-b854-0cfc724e6dea" data-name="Layer 27"><path d="M78.24,495.19l-9,2.9V495l6.63-2.14-1.53-4.72-5.1,1.66V486.6l5.61-1.81a1.5,1.5,0,0,1,1.88,1l2.45,7.56A1.49,1.49,0,0,1,78.24,495.19Zm-9,2.9-5.61,1.82a1.49,1.49,0,0,1-1.88-1l-2.44-7.56a1.5,1.5,0,0,1,1-1.88l9-2.9v3.15l-6.63,2.14,1.53,4.71,5.1-1.65Z" transform="translate(1.49 1.49)" style="fill:#3a3732;fill-rule:evenodd"/></g><g id="f3b50905-6fae-487e-8ae6-feadf757f659" data-name="Layer 26"><rect x="84.46" y="480.98" width="15.32" height="7.94" transform="translate(-143.3 53.39) rotate(-17.93)" style="fill:#a4dbf8"/></g><g id="e6dfaa20-8df5-4a6d-b405-7dfcecd22567" data-name="Layer 25"><path d="M101.09,487.8l-9,2.9v-3.14l6.63-2.15-1.52-4.71-5.11,1.65v-3.14l5.61-1.82a1.49,1.49,0,0,1,1.88,1l2.45,7.56A1.5,1.5,0,0,1,101.09,487.8Zm-9,2.9-5.61,1.82a1.51,1.51,0,0,1-1.88-1L82.19,484a1.5,1.5,0,0,1,1-1.88l9-2.9v3.14l-6.63,2.15L87,489.21l5.1-1.65Z" transform="translate(1.49 1.49)" style="fill:#3a3732;fill-rule:evenodd"/></g><g id="eca50594-f059-413c-ba68-2afa8f9e035b" data-name="Layer 24"><polygon points="156.25 384.91 131.26 433.53 166.67 451.72 173.46 438.5 186.68 445.29 204.87 409.89 156.25 384.91" style="fill:#fff;fill-rule:evenodd"/></g><g id="b76b58bf-5dbe-4a47-8e8a-f669126a49f2" data-name="Layer 23"><path d="M166.57,444.24l4.07-7.91a1.47,1.47,0,0,1,2-.65l11.9,6.11L201.36,409l-34.79-17.87v-3.36l37.48,19.25a1.49,1.49,0,0,1,.65,2l-18.19,35.41a1.5,1.5,0,0,1-2,.65L172.61,439l-6,11.75ZM155.4,385.42l-23.62,46,32.75,16.82,2-4v6.53l-.07.14a1.5,1.5,0,0,1-2,.65l-35.4-18.19a1.5,1.5,0,0,1-.65-2l25-48.63a1.51,1.51,0,0,1,2-.65l11.14,5.73v3.36Z" transform="translate(1.49 1.49)" style="fill:#3a3732;fill-rule:evenodd"/></g><g id="f9dfc92c-1ea4-45da-a4b5-372139be287b" data-name="Layer 22"><polygon points="166.67 451.72 186.68 445.29 173.46 438.5 166.67 451.72" style="fill:#fff;fill-rule:evenodd"/></g><g id="bab97ebf-ba71-4297-95bc-22d1d2bee706" data-name="Layer 21"><path d="M174.72,445.59l6.57-2.11-6.57-3.38v-3.36l11.08,5.7a1.51,1.51,0,0,1,.81.9,1.49,1.49,0,0,1-1,1.88l-10.92,3.51Zm-6.57,2.11,6.57-2.11v3.14l-9.09,2.92a1.57,1.57,0,0,1-1.14-.09,1.51,1.51,0,0,1-.65-2l6.8-13.22a1.47,1.47,0,0,1,2-.65l2.08,1.06v3.36L172.61,439Z" transform="translate(1.49 1.49)" style="fill:#3a3732;fill-rule:evenodd"/></g><g id="a6dd7489-9693-4eeb-aeaa-7b263a1c29f5" data-name="Layer 20"><path d="M149.35,393.94a1.49,1.49,0,1,1,1.36-2.66l11.87,6.1a1.49,1.49,0,1,1-1.35,2.66Z" transform="translate(1.49 1.49)" style="fill:#3a3732;fill-rule:evenodd"/></g><g id="e9793e8c-fe7a-4c51-a02c-d2fe5a0fb54b" data-name="Layer 19"><path d="M170.89,405a1.51,1.51,0,0,1-.65-2,1.49,1.49,0,0,1,2-.65l27.08,13.91a1.49,1.49,0,0,1-1.36,2.66Z" transform="translate(1.49 1.49)" style="fill:#3a3732;fill-rule:evenodd"/></g><g id="b0c68e03-5332-45c8-b2f0-28fe35ade6b6" data-name="Layer 18"><path d="M174.65,309.45a34.43,34.43,0,1,1-44.55-19.66A34.44,34.44,0,0,1,174.65,309.45Z" transform="translate(1.49 1.49)" style="fill:#fff;fill-rule:evenodd"/></g><g id="fec7a230-1bfb-4cfb-a1fb-117f09a21bf9" data-name="Layer 17"><path d="M176.05,308.92a36,36,0,0,1-33.51,48.91v-3a32.94,32.94,0,0,0,30.75-44.73,2,2,0,0,1-.08-.22A33,33,0,0,0,142.54,289v-3a36,36,0,0,1,33.5,23Zm-33.51,48.91a36,36,0,0,1-33.48-22.91l0-.11a35.92,35.92,0,0,1,20.49-46.4l.12,0A35.77,35.77,0,0,1,142.54,286v3a32.83,32.83,0,0,0-11.79,2.19l-.22.08a32.94,32.94,0,0,0-18.72,42.52l0,.06a33,33,0,0,0,30.71,21Z" transform="translate(1.49 1.49)" style="fill:#3a3732;fill-rule:evenodd"/></g><g id="f104fb58-46ac-4216-b188-3249fb645de6" data-name="Layer 16"><path d="M181.2,302.7l58.75-29a9.74,9.74,0,0,1,8.54,0h0a9.76,9.76,0,0,1,4.83,12.46h0a9.75,9.75,0,0,1-6.34,5.72L184,310Z" transform="translate(1.49 1.49)" style="fill:#a4dbf8;fill-rule:evenodd"/></g><g id="a55f093d-cdbb-4834-9335-fc52149fce8b" data-name="Layer 15"><path d="M217.81,283l21.47-10.6a11.36,11.36,0,0,1,4.93-1.16,11.25,11.25,0,0,1,3.18,22.07l-29.58,8.55v-3.11l28.76-8.3a8.37,8.37,0,0,0,3.24-1.81,8.28,8.28,0,0,0-2-13.6,8.39,8.39,0,0,0-3.63-.81,8.22,8.22,0,0,0-3.61.86l-22.8,11.25Zm-37.27,18.4L217.81,283v3.34l-34.72,17.14,1.85,4.76,32.87-9.49v3.11l-33.36,9.63a1.49,1.49,0,0,1-1.81-.9l-2.83-7.31A1.49,1.49,0,0,1,180.54,301.36Z" transform="translate(1.49 1.49)" style="fill:#3a3732;fill-rule:evenodd"/></g><g id="a56ad74a-d6ed-4506-8e36-49b19367cd8b" data-name="Layer 14"><path d="M174.65,309.45a34.92,34.92,0,0,1,1.73,6.09l8.52-3.3-4.56-11.76-8.52,3.3A34.88,34.88,0,0,1,174.65,309.45Z" transform="translate(1.49 1.49)" style="fill:#fff;fill-rule:evenodd"/></g><g id="e05e947f-f9e6-4356-b0d1-d3ffda153e63" data-name="Layer 13"><path d="M178.48,313.12l4.48-1.74-3.47-9-1,.39v-3.21l1.32-.51a1.49,1.49,0,0,1,1.93.86l4.56,11.76a1.49,1.49,0,0,1-.85,1.93l-7,2.7ZM176,308.91c.4,1,.75,2.08,1.05,3.11.14.49.27,1,.39,1.49l1-.39v3.21l-1.5.58a1.59,1.59,0,0,1-.33.1,1.49,1.49,0,0,1-1.74-1.2c-.19-1-.42-2-.71-3h0c-.27-1-.59-1.92-.95-2.85s-.76-1.84-1.22-2.76-.95-1.8-1.46-2.62a2.64,2.64,0,0,1-.15-.29,1.51,1.51,0,0,1,.86-1.94l7.2-2.79v3.21L174,304.54c.25.45.49.9.71,1.36C175.19,306.85,175.63,307.85,176,308.91Z" transform="translate(1.49 1.49)" style="fill:#3a3732;fill-rule:evenodd"/></g><g id="b424f485-e10e-4a96-825b-6dcd7496a9cf" data-name="Layer 12"><path d="M166.29,312.69a25.47,25.47,0,1,1-32.95-14.55A25.48,25.48,0,0,1,166.29,312.69Z" transform="translate(1.49 1.49)" style="fill:#fff;fill-rule:evenodd"/></g><g id="b28c7575-a7d0-4353-98cf-3b3768486ed5" data-name="Layer 11"><path d="M167.68,312.15a27,27,0,0,1-25.14,36.71v-3a24,24,0,0,0,8.66-1.62h0a24,24,0,0,0-8.67-46.33v-3a27,27,0,0,1,25.14,17.23Zm-25.14,36.71a27,27,0,0,1,0-53.94v3a24,24,0,0,0-22.35,32.64h0a24,24,0,0,0,22.35,15.31Z" transform="translate(1.49 1.49)" style="fill:#3a3732;fill-rule:evenodd"/></g><g id="b0db2c90-0b8f-482e-abe2-53fdd235de7f" data-name="Layer 10"><path d="M154.7,335.67a23.52,23.52,0,0,0,10.85-8.54,23.59,23.59,0,0,0-42.38-18.71,23.58,23.58,0,0,0,31.53,27.25Z" transform="translate(1.49 1.49)" style="fill:#a4dbf8;fill-rule:evenodd"/></g><g id="f40544fb-1518-4cc8-9624-5a4aa2b45d9c" data-name="Layer 9"><path d="M248.37,291.3a1.5,1.5,0,1,1-2.79,1.08l-7-18.14a1.49,1.49,0,0,1,2.79-1.07Z" transform="translate(1.49 1.49)" style="fill:#3a3732;fill-rule:evenodd"/></g><g id="aa8f045f-690d-458c-ae19-6b4073bd5ed0" data-name="Layer 8"><path d="M69.71,312.57l-31.27-8.1a9,9,0,0,0-11,6.45l-2.83,10.93,48.69,12.62,2.83-10.93A9,9,0,0,0,69.71,312.57Z" transform="translate(1.49 1.49)" style="fill:#a4dbf8;fill-rule:evenodd"/></g><g id="f21be541-1d35-4d89-a529-4fd5a99510fb" data-name="Layer 7"><path d="M69.21,314l-18.5-4.8V306.1l19.37,5a10.49,10.49,0,0,1,7.53,12.77l-2.84,11A1.49,1.49,0,0,1,73,335.92l-22.24-5.77v-3.09l21.55,5.59,2.42-9.36.06-.24a7.49,7.49,0,0,0-5.3-9A1.55,1.55,0,0,1,69.21,314Zm-18.5-4.8-12.65-3.28a7.49,7.49,0,0,0-9.14,5.39l-2.46,9.48,24.25,6.28v3.09L24.26,323.3a1.49,1.49,0,0,1-1.07-1.82L26,310.55A10.49,10.49,0,0,1,38.81,303l11.9,3.08Z" transform="translate(1.49 1.49)" style="fill:#3a3732;fill-rule:evenodd"/></g><g id="bbad986d-017f-4949-9d44-322bdff3beb0" data-name="Layer 6"><path d="M69.34,287.62a10.18,10.18,0,1,0-18.2-8.38c-.07.29-.13.6-.18.91a2,2,0,0,0,0,.24c-1.18,8,4,23.11-2.15,26.75l5.16,1.34.14,0,5.17,1.34C55.94,304.25,65.43,294.94,69.34,287.62Z" transform="translate(1.49 1.49)" style="fill:#a4dbf8;fill-rule:evenodd"/></g><g id="ab08b428-74fd-44ad-99cf-102a96b6b8a8" data-name="Layer 5"><path d="M68.14,286.74a9,9,0,0,0,.75-1.33,8.16,8.16,0,0,0,.52-1.43,8.68,8.68,0,0,0-6.12-10.56l-.23-.06a8.73,8.73,0,0,0-2.37-.25v-3a11.58,11.58,0,0,1,3.23.37h0a11.69,11.69,0,0,1,8.37,14.24,11.14,11.14,0,0,1-.69,1.94,12.44,12.44,0,0,1-1,1.73,72.39,72.39,0,0,1-4.43,6.81c-2.19,3.14-4.43,6.33-5.5,9.07V298c1-1.5,2-3,3.05-4.5A68.18,68.18,0,0,0,68,286.91a1,1,0,0,1,.11-.17Zm-7.45,23.48v-.73A1.5,1.5,0,0,1,60.69,310.22Zm0-37.11a8.7,8.7,0,0,0-8.07,6.39.86.86,0,0,1-.06.23c-.05.25-.1.5-.14.76h0l0,.12c-.39,2.67,0,6.33.38,10.05.62,6,1.26,12.09-1.09,15.7l5.38,1.39c-.21-3,1.44-6.34,3.62-9.75v6.28c-.73,1.87-.92,3.53-.17,4.81a1.78,1.78,0,0,1,.17.4v.73h0a1.51,1.51,0,0,1-1.83,1.08l-10.47-2.72a1.49,1.49,0,0,1-.38-2.73c3.15-1.86,2.46-8.47,1.79-14.9-.41-3.91-.81-7.76-.36-10.78l0-.12h0l0-.15c0-.16.06-.33.1-.52s.08-.37.12-.52h0a11.67,11.67,0,0,1,11-8.75Z" transform="translate(1.49 1.49)" style="fill:#3a3732;fill-rule:evenodd"/></g><g id="ae5c0568-6fb1-424f-b9ec-509f8680b3d4" data-name="Layer 4"><rect x="45.48" y="308.62" width="5.59" height="44.5" transform="translate(-282.62 296.08) rotate(-75.47)" style="fill:#fff"/></g><g id="e1633507-5123-4093-995e-286b1327eb46" data-name="Layer 3"><path d="M68.74,340.6l-20.46-5.3v-3.09l19.77,5.13.65-2.52-20.42-5.3v-3.08L70.9,332.3A1.49,1.49,0,0,1,72,334.12l-1.4,5.41A1.5,1.5,0,0,1,68.74,340.6Zm-20.46-5.3-22.62-5.86a1.5,1.5,0,0,1-1.07-1.82L26,322.2a1.5,1.5,0,0,1,1.83-1.07l20.46,5.31v3.08L28.51,324.4l-.65,2.52,20.42,5.29Z" transform="translate(1.49 1.49)" style="fill:#3a3732;fill-rule:evenodd"/></g><g id="bbd84bcd-bc7f-4cfb-94f7-1789ff04a2c0" data-name="Layer 2"><path d="M25.82,317.29a1.5,1.5,0,0,1-1.07-1.83,1.49,1.49,0,0,1,1.82-1.07l16.94,4.39a1.5,1.5,0,0,1-.75,2.9Z" transform="translate(1.49 1.49)" style="fill:#3a3732;fill-rule:evenodd"/></g></svg>